<mxfile host="65bd71144e" pages="3">
    <diagram name="Page-1" id="HfOCEs207xKVydwGYNE-">
        <mxGraphModel dx="1104" dy="768" grid="1" gridSize="10" guides="1" tooltips="1" connect="1" arrows="1" fold="1" page="1" pageScale="1" pageWidth="827" pageHeight="1169" math="0" shadow="0">
            <root>
                <mxCell id="5euBJaOUCBgd8RF8ccWw-0"/>
                <mxCell id="5euBJaOUCBgd8RF8ccWw-1" parent="5euBJaOUCBgd8RF8ccWw-0"/>
                <mxCell id="5euBJaOUCBgd8RF8ccWw-2" value="Projection&lt;br&gt;(PM Account)" style="rounded=0;whiteSpace=wrap;html=1;strokeWidth=2;perimeterSpacing=0;glass=0;strokeColor=none;fillColor=#EAEFF7;verticalAlign=top;" parent="5euBJaOUCBgd8RF8ccWw-1" vertex="1">
                    <mxGeometry x="23" y="420" width="100" height="300" as="geometry"/>
                </mxCell>
                <mxCell id="5euBJaOUCBgd8RF8ccWw-3" value="" style="endArrow=none;html=1;strokeWidth=3;strokeColor=#1E3F78;rounded=1;fontFamily=Roboto;fontSource=https%3A%2F%2Ffonts.googleapis.com%2Fcss%3Ffamily%3DRoboto;fontSize=11;fontColor=#000000;endSize=6;elbow=vertical;jumpSize=6;entryX=0;entryY=0.5;entryDx=0;entryDy=0;exitX=0.25;exitY=0;exitDx=0;exitDy=0;edgeStyle=orthogonalEdgeStyle;" parent="5euBJaOUCBgd8RF8ccWw-1" source="5euBJaOUCBgd8RF8ccWw-5" target="5euBJaOUCBgd8RF8ccWw-25" edge="1">
                    <mxGeometry width="50" height="50" relative="1" as="geometry">
                        <mxPoint x="63" y="589" as="sourcePoint"/>
                        <mxPoint x="85" y="508.75" as="targetPoint"/>
                    </mxGeometry>
                </mxCell>
                <mxCell id="5euBJaOUCBgd8RF8ccWw-4" value="&lt;i&gt;User's record in Project Management system&lt;/i&gt;" style="text;html=1;strokeColor=none;fillColor=none;align=center;verticalAlign=middle;whiteSpace=wrap;rounded=0;" parent="5euBJaOUCBgd8RF8ccWw-1" vertex="1">
                    <mxGeometry x="30.5" y="650" width="85" height="60" as="geometry"/>
                </mxCell>
                <mxCell id="5euBJaOUCBgd8RF8ccWw-5" value="project&lt;br&gt;&lt;span style=&quot;font-weight: normal&quot;&gt;(new value)&lt;br&gt;&lt;br&gt;&lt;/span&gt;&lt;span style=&quot;font-weight: normal&quot;&gt;&lt;font face=&quot;Courier New&quot;&gt;overlord&lt;br&gt;underdog&lt;/font&gt;&lt;br&gt;&lt;/span&gt;" style="rounded=0;whiteSpace=wrap;html=1;strokeWidth=3;perimeterSpacing=0;glass=0;fontFamily=Roboto;fontSource=https%3A%2F%2Ffonts.googleapis.com%2Fcss%3Ffamily%3DRoboto;fontSize=11;fontStyle=1;spacing=2;strokeColor=#1E3F78;verticalAlign=top;fillColor=#EAEFF7;" parent="5euBJaOUCBgd8RF8ccWw-1" vertex="1">
                    <mxGeometry x="33" y="540" width="80" height="83.75" as="geometry"/>
                </mxCell>
                <mxCell id="5euBJaOUCBgd8RF8ccWw-6" value="Focus&lt;br&gt;(User)" style="rounded=0;whiteSpace=wrap;html=1;strokeWidth=2;perimeterSpacing=0;glass=0;strokeColor=none;fillColor=#EAEFF7;verticalAlign=top;" parent="5euBJaOUCBgd8RF8ccWw-1" vertex="1">
                    <mxGeometry x="553" y="30" width="257" height="740" as="geometry"/>
                </mxCell>
                <mxCell id="5euBJaOUCBgd8RF8ccWw-7" value="Projection&lt;br&gt;(HR Account)" style="rounded=0;whiteSpace=wrap;html=1;strokeWidth=2;perimeterSpacing=0;glass=0;strokeColor=none;fillColor=#EAEFF7;verticalAlign=top;" parent="5euBJaOUCBgd8RF8ccWw-1" vertex="1">
                    <mxGeometry x="23" y="20" width="100" height="300" as="geometry"/>
                </mxCell>
                <mxCell id="5euBJaOUCBgd8RF8ccWw-8" value="&lt;font color=&quot;#1e3f78&quot; style=&quot;font-size: 22px&quot;&gt;Mapping A&lt;/font&gt;" style="rounded=0;whiteSpace=wrap;html=1;strokeWidth=3;perimeterSpacing=0;glass=0;strokeColor=#1E3F78;fontFamily=Roboto;fontSource=https%3A%2F%2Ffonts.googleapis.com%2Fcss%3Ffamily%3DRoboto;fontColor=#FFFFFF;fontSize=11;fontStyle=1;spacing=2;verticalAlign=top;fillColor=#E6E6E6;" parent="5euBJaOUCBgd8RF8ccWw-1" vertex="1">
                    <mxGeometry x="143" y="130" width="390" height="220" as="geometry"/>
                </mxCell>
                <mxCell id="5euBJaOUCBgd8RF8ccWw-9" value="Expression&lt;br&gt;&lt;span style=&quot;font-weight: normal&quot;&gt;assignmentTargetSearch&lt;/span&gt;" style="rounded=0;whiteSpace=wrap;html=1;strokeWidth=3;perimeterSpacing=0;glass=0;fontFamily=Roboto;fontSource=https%3A%2F%2Ffonts.googleapis.com%2Fcss%3Ffamily%3DRoboto;fontSize=11;fontStyle=1;spacing=2;strokeColor=#1E3F78;verticalAlign=top;" parent="5euBJaOUCBgd8RF8ccWw-1" vertex="1">
                    <mxGeometry x="173" y="240" width="156" height="50" as="geometry"/>
                </mxCell>
                <mxCell id="5euBJaOUCBgd8RF8ccWw-10" value="" style="edgeStyle=elbowEdgeStyle;elbow=horizontal;endArrow=block;html=1;fontFamily=Roboto;fontSource=https%3A%2F%2Ffonts.googleapis.com%2Fcss2%3Ffamily%3DRoboto%3Aital%2Cwght%401%2C300%26display%3Dswapp;fontSize=9;fontColor=#FFFFFF;strokeColor=#1E3F78;strokeWidth=3;endFill=1;exitX=1;exitY=0.5;exitDx=0;exitDy=0;" parent="5euBJaOUCBgd8RF8ccWw-1" source="5euBJaOUCBgd8RF8ccWw-11" target="5euBJaOUCBgd8RF8ccWw-9" edge="1">
                    <mxGeometry width="50" height="50" relative="1" as="geometry">
                        <mxPoint x="371" y="495.25" as="sourcePoint"/>
                        <mxPoint x="449.5" y="330.0000000000001" as="targetPoint"/>
                        <Array as="points">
                            <mxPoint x="256" y="220"/>
                        </Array>
                    </mxGeometry>
                </mxCell>
                <mxCell id="5euBJaOUCBgd8RF8ccWw-11" value="&lt;font color=&quot;#1e3f78&quot;&gt;Source&lt;br&gt;&lt;span style=&quot;font-weight: 400&quot;&gt;attributes/jobCode&lt;/span&gt;&lt;br&gt;&lt;/font&gt;" style="rounded=0;whiteSpace=wrap;html=1;strokeWidth=3;perimeterSpacing=0;glass=0;strokeColor=#1E3F78;fontFamily=Roboto;fontSource=https%3A%2F%2Ffonts.googleapis.com%2Fcss%3Ffamily%3DRoboto;fontColor=#FFFFFF;fontSize=11;fontStyle=1;spacing=0;verticalAlign=top;fillColor=#E6E6E6;" parent="5euBJaOUCBgd8RF8ccWw-1" vertex="1">
                    <mxGeometry x="97" y="170" width="120" height="37.5" as="geometry"/>
                </mxCell>
                <mxCell id="5euBJaOUCBgd8RF8ccWw-12" value="&lt;font color=&quot;#1e3f78&quot;&gt;&lt;span style=&quot;font-weight: 400&quot;&gt;default range&lt;/span&gt;&lt;/font&gt;" style="rounded=1;whiteSpace=wrap;html=1;strokeWidth=3;perimeterSpacing=0;glass=0;strokeColor=#1E3F78;fontFamily=Roboto;fontSource=https%3A%2F%2Ffonts.googleapis.com%2Fcss%3Ffamily%3DRoboto;fontColor=#FFFFFF;fontSize=11;fontStyle=1;spacing=2;verticalAlign=bottom;fillColor=#E6E6E6;dashed=1;dashPattern=1 1;arcSize=9;" parent="5euBJaOUCBgd8RF8ccWw-1" vertex="1">
                    <mxGeometry x="430" y="230" width="153" height="100" as="geometry"/>
                </mxCell>
                <mxCell id="5euBJaOUCBgd8RF8ccWw-13" value="&lt;font color=&quot;#1e3f78&quot;&gt;Target&lt;br&gt;&lt;span style=&quot;font-weight: 400&quot;&gt;assignment&lt;/span&gt;&lt;br&gt;&lt;/font&gt;" style="rounded=0;whiteSpace=wrap;html=1;strokeWidth=3;perimeterSpacing=0;glass=0;strokeColor=#1E3F78;fontFamily=Roboto;fontSource=https%3A%2F%2Ffonts.googleapis.com%2Fcss%3Ffamily%3DRoboto;fontColor=#FFFFFF;fontSize=11;fontStyle=1;spacing=0;verticalAlign=top;fillColor=#E6E6E6;" parent="5euBJaOUCBgd8RF8ccWw-1" vertex="1">
                    <mxGeometry x="410" y="246.25" width="193" height="37.5" as="geometry"/>
                </mxCell>
                <mxCell id="5euBJaOUCBgd8RF8ccWw-14" value="" style="endArrow=none;html=1;strokeWidth=3;strokeColor=#1E3F78;rounded=0;fontFamily=Courier New;fontSize=14;fontColor=#000000;exitX=0;exitY=0.5;exitDx=0;exitDy=0;entryX=1;entryY=0.5;entryDx=0;entryDy=0;edgeStyle=elbowEdgeStyle;elbow=vertical;endSize=6;jumpSize=6;" parent="5euBJaOUCBgd8RF8ccWw-1" source="5euBJaOUCBgd8RF8ccWw-13" target="5euBJaOUCBgd8RF8ccWw-9" edge="1">
                    <mxGeometry width="50" height="50" relative="1" as="geometry">
                        <mxPoint x="323" y="267.5" as="sourcePoint"/>
                        <mxPoint x="513.0000000000002" y="252.5000000000001" as="targetPoint"/>
                    </mxGeometry>
                </mxCell>
                <mxCell id="5euBJaOUCBgd8RF8ccWw-15" value="" style="endArrow=none;html=1;strokeWidth=3;strokeColor=#1E3F78;rounded=1;fontFamily=Roboto;fontSource=https%3A%2F%2Ffonts.googleapis.com%2Fcss%3Ffamily%3DRoboto;fontSize=11;fontColor=#000000;endSize=6;elbow=vertical;jumpSize=6;entryX=0;entryY=0.5;entryDx=0;entryDy=0;exitX=0.446;exitY=0.998;exitDx=0;exitDy=0;exitPerimeter=0;edgeStyle=orthogonalEdgeStyle;" parent="5euBJaOUCBgd8RF8ccWw-1" source="5euBJaOUCBgd8RF8ccWw-21" target="5euBJaOUCBgd8RF8ccWw-11" edge="1">
                    <mxGeometry width="50" height="50" relative="1" as="geometry">
                        <mxPoint x="63" y="189" as="sourcePoint"/>
                        <mxPoint x="513" y="360" as="targetPoint"/>
                    </mxGeometry>
                </mxCell>
                <mxCell id="5euBJaOUCBgd8RF8ccWw-16" value="assignment&lt;br&gt;&lt;span style=&quot;font-weight: normal&quot;&gt;(old values)&lt;/span&gt;" style="rounded=0;whiteSpace=wrap;html=1;strokeWidth=3;perimeterSpacing=0;glass=0;fontFamily=Roboto;fontSource=https%3A%2F%2Ffonts.googleapis.com%2Fcss%3Ffamily%3DRoboto;fontSize=11;fontStyle=1;spacing=2;strokeColor=#1E3F78;verticalAlign=top;fillColor=#EAEFF7;" parent="5euBJaOUCBgd8RF8ccWw-1" vertex="1">
                    <mxGeometry x="623" y="300" width="160" height="240" as="geometry"/>
                </mxCell>
                <mxCell id="5euBJaOUCBgd8RF8ccWw-17" value="&lt;i&gt;User's record in HR system&lt;/i&gt;" style="text;html=1;strokeColor=none;fillColor=none;align=center;verticalAlign=middle;whiteSpace=wrap;rounded=0;" parent="5euBJaOUCBgd8RF8ccWw-1" vertex="1">
                    <mxGeometry x="30.5" y="270" width="85" height="40" as="geometry"/>
                </mxCell>
                <mxCell id="5euBJaOUCBgd8RF8ccWw-18" value="&lt;div&gt;&lt;span style=&quot;font-weight: 400&quot;&gt;target = Sales Assistant&lt;/span&gt;&lt;/div&gt;&lt;span style=&quot;font-weight: 400&quot;&gt;&lt;div&gt;&lt;span&gt;provenance = HR&lt;/span&gt;&lt;/div&gt;&lt;/span&gt;" style="rounded=0;whiteSpace=wrap;html=1;strokeWidth=3;perimeterSpacing=0;glass=0;fontFamily=Roboto;fontSource=https%3A%2F%2Ffonts.googleapis.com%2Fcss%3Ffamily%3DRoboto;fontSize=11;fontStyle=1;spacing=2;strokeColor=#1E3F78;verticalAlign=top;fillColor=#EAEFF7;align=left;spacingLeft=4;" parent="5euBJaOUCBgd8RF8ccWw-1" vertex="1">
                    <mxGeometry x="633" y="340" width="140" height="40" as="geometry"/>
                </mxCell>
                <mxCell id="5euBJaOUCBgd8RF8ccWw-19" value="&lt;div&gt;&lt;span style=&quot;font-weight: 400&quot;&gt;target = Business Analyst&lt;/span&gt;&lt;/div&gt;&lt;span style=&quot;font-weight: 400;&quot;&gt;provenance =&amp;nbsp;&lt;/span&gt;&lt;span style=&quot;font-weight: 400; background-color: initial;&quot;&gt;manual&lt;/span&gt;&lt;span style=&quot;font-weight: 400;&quot;&gt;&lt;br&gt;&lt;/span&gt;" style="rounded=0;whiteSpace=wrap;html=1;strokeWidth=3;perimeterSpacing=0;glass=0;fontFamily=Roboto;fontSource=https%3A%2F%2Ffonts.googleapis.com%2Fcss%3Ffamily%3DRoboto;fontSize=11;fontStyle=1;spacing=2;strokeColor=#1E3F78;verticalAlign=top;fillColor=#EAEFF7;align=left;spacingLeft=4;" parent="5euBJaOUCBgd8RF8ccWw-1" vertex="1">
                    <mxGeometry x="633" y="390" width="140" height="40" as="geometry"/>
                </mxCell>
                <mxCell id="5euBJaOUCBgd8RF8ccWw-20" value="&lt;span style=&quot;font-size: 11px&quot;&gt;name == &quot;HR&quot;&lt;/span&gt;" style="rounded=0;whiteSpace=wrap;html=1;dashed=1;dashPattern=1 1;fontFamily=Courier New;fontSize=14;fillColor=none;strokeColor=none;" parent="5euBJaOUCBgd8RF8ccWw-1" vertex="1">
                    <mxGeometry x="286" y="160" width="104" height="20" as="geometry"/>
                </mxCell>
                <mxCell id="5euBJaOUCBgd8RF8ccWw-21" value="jobCode&lt;br&gt;&lt;span style=&quot;font-weight: normal&quot;&gt;(new value)&lt;br&gt;&lt;br&gt;&lt;/span&gt;&lt;span style=&quot;font-weight: normal&quot;&gt;&lt;font face=&quot;Courier New&quot;&gt;30054&lt;/font&gt;&lt;br&gt;&lt;/span&gt;" style="rounded=0;whiteSpace=wrap;html=1;strokeWidth=3;perimeterSpacing=0;glass=0;fontFamily=Roboto;fontSource=https%3A%2F%2Ffonts.googleapis.com%2Fcss%3Ffamily%3DRoboto;fontSize=11;fontStyle=1;spacing=2;strokeColor=#1E3F78;verticalAlign=top;fillColor=#EAEFF7;" parent="5euBJaOUCBgd8RF8ccWw-1" vertex="1">
                    <mxGeometry x="33" y="82.5" width="80" height="67.5" as="geometry"/>
                </mxCell>
                <mxCell id="5euBJaOUCBgd8RF8ccWw-22" value="&lt;font color=&quot;#1e3f78&quot; style=&quot;font-size: 22px&quot;&gt;Mapping B&lt;/font&gt;" style="rounded=0;whiteSpace=wrap;html=1;strokeWidth=3;perimeterSpacing=0;glass=0;strokeColor=#1E3F78;fontFamily=Roboto;fontSource=https%3A%2F%2Ffonts.googleapis.com%2Fcss%3Ffamily%3DRoboto;fontColor=#FFFFFF;fontSize=11;fontStyle=1;spacing=2;verticalAlign=top;fillColor=#E6E6E6;" parent="5euBJaOUCBgd8RF8ccWw-1" vertex="1">
                    <mxGeometry x="143" y="440" width="390" height="220" as="geometry"/>
                </mxCell>
                <mxCell id="5euBJaOUCBgd8RF8ccWw-23" value="Expression&lt;br&gt;&lt;span style=&quot;font-weight: normal&quot;&gt;assignmentTargetSearch&lt;/span&gt;" style="rounded=0;whiteSpace=wrap;html=1;strokeWidth=3;perimeterSpacing=0;glass=0;fontFamily=Roboto;fontSource=https%3A%2F%2Ffonts.googleapis.com%2Fcss%3Ffamily%3DRoboto;fontSize=11;fontStyle=1;spacing=2;strokeColor=#1E3F78;verticalAlign=top;" parent="5euBJaOUCBgd8RF8ccWw-1" vertex="1">
                    <mxGeometry x="173" y="550" width="156" height="50" as="geometry"/>
                </mxCell>
                <mxCell id="5euBJaOUCBgd8RF8ccWw-24" value="" style="edgeStyle=elbowEdgeStyle;elbow=horizontal;endArrow=block;html=1;fontFamily=Roboto;fontSource=https%3A%2F%2Ffonts.googleapis.com%2Fcss2%3Ffamily%3DRoboto%3Aital%2Cwght%401%2C300%26display%3Dswapp;fontSize=9;fontColor=#FFFFFF;strokeColor=#1E3F78;strokeWidth=3;endFill=1;exitX=1;exitY=0.5;exitDx=0;exitDy=0;" parent="5euBJaOUCBgd8RF8ccWw-1" source="5euBJaOUCBgd8RF8ccWw-25" target="5euBJaOUCBgd8RF8ccWw-23" edge="1">
                    <mxGeometry width="50" height="50" relative="1" as="geometry">
                        <mxPoint x="371" y="805.25" as="sourcePoint"/>
                        <mxPoint x="449.5" y="640.0000000000001" as="targetPoint"/>
                        <Array as="points">
                            <mxPoint x="256" y="530"/>
                        </Array>
                    </mxGeometry>
                </mxCell>
                <mxCell id="5euBJaOUCBgd8RF8ccWw-25" value="&lt;font color=&quot;#1e3f78&quot;&gt;Source&lt;br&gt;&lt;span style=&quot;font-weight: 400&quot;&gt;attributes/project&lt;/span&gt;&lt;br&gt;&lt;/font&gt;" style="rounded=0;whiteSpace=wrap;html=1;strokeWidth=3;perimeterSpacing=0;glass=0;strokeColor=#1E3F78;fontFamily=Roboto;fontSource=https%3A%2F%2Ffonts.googleapis.com%2Fcss%3Ffamily%3DRoboto;fontColor=#FFFFFF;fontSize=11;fontStyle=1;spacing=0;verticalAlign=top;fillColor=#E6E6E6;" parent="5euBJaOUCBgd8RF8ccWw-1" vertex="1">
                    <mxGeometry x="97" y="480" width="120" height="37.5" as="geometry"/>
                </mxCell>
                <mxCell id="5euBJaOUCBgd8RF8ccWw-26" value="&lt;span style=&quot;color: rgb(30, 63, 120); font-weight: 400;&quot;&gt;default&amp;nbsp;&lt;/span&gt;&lt;font color=&quot;#1e3f78&quot;&gt;&lt;span style=&quot;font-weight: 400&quot;&gt;range&lt;/span&gt;&lt;/font&gt;" style="rounded=1;whiteSpace=wrap;html=1;strokeWidth=3;perimeterSpacing=0;glass=0;strokeColor=#1E3F78;fontFamily=Roboto;fontSource=https%3A%2F%2Ffonts.googleapis.com%2Fcss%3Ffamily%3DRoboto;fontColor=#FFFFFF;fontSize=11;fontStyle=1;spacing=2;verticalAlign=bottom;fillColor=#E6E6E6;dashed=1;dashPattern=1 1;arcSize=9;" parent="5euBJaOUCBgd8RF8ccWw-1" vertex="1">
                    <mxGeometry x="430" y="540" width="153" height="100" as="geometry"/>
                </mxCell>
                <mxCell id="5euBJaOUCBgd8RF8ccWw-27" value="&lt;font color=&quot;#1e3f78&quot;&gt;Target&lt;br&gt;&lt;span style=&quot;font-weight: 400&quot;&gt;assignment&lt;/span&gt;&lt;br&gt;&lt;/font&gt;" style="rounded=0;whiteSpace=wrap;html=1;strokeWidth=3;perimeterSpacing=0;glass=0;strokeColor=#1E3F78;fontFamily=Roboto;fontSource=https%3A%2F%2Ffonts.googleapis.com%2Fcss%3Ffamily%3DRoboto;fontColor=#FFFFFF;fontSize=11;fontStyle=1;spacing=0;verticalAlign=top;fillColor=#E6E6E6;" parent="5euBJaOUCBgd8RF8ccWw-1" vertex="1">
                    <mxGeometry x="410" y="556.25" width="193" height="37.5" as="geometry"/>
                </mxCell>
                <mxCell id="5euBJaOUCBgd8RF8ccWw-28" value="" style="endArrow=none;html=1;strokeWidth=3;strokeColor=#1E3F78;rounded=0;fontFamily=Courier New;fontSize=14;fontColor=#000000;exitX=0;exitY=0.5;exitDx=0;exitDy=0;entryX=1;entryY=0.5;entryDx=0;entryDy=0;edgeStyle=elbowEdgeStyle;elbow=vertical;endSize=6;jumpSize=6;" parent="5euBJaOUCBgd8RF8ccWw-1" source="5euBJaOUCBgd8RF8ccWw-27" target="5euBJaOUCBgd8RF8ccWw-23" edge="1">
                    <mxGeometry width="50" height="50" relative="1" as="geometry">
                        <mxPoint x="323" y="577.5" as="sourcePoint"/>
                        <mxPoint x="513.0000000000002" y="562.5000000000001" as="targetPoint"/>
                    </mxGeometry>
                </mxCell>
                <mxCell id="5euBJaOUCBgd8RF8ccWw-29" value="&lt;span style=&quot;font-size: 11px&quot;&gt;name == &quot;project&quot;&lt;/span&gt;" style="rounded=0;whiteSpace=wrap;html=1;dashed=1;dashPattern=1 1;fontFamily=Courier New;fontSize=14;fillColor=none;strokeColor=none;" parent="5euBJaOUCBgd8RF8ccWw-1" vertex="1">
                    <mxGeometry x="274" y="470" width="140" height="20" as="geometry"/>
                </mxCell>
                <mxCell id="5euBJaOUCBgd8RF8ccWw-30" value="" style="edgeStyle=elbowEdgeStyle;elbow=vertical;endArrow=block;html=1;fontFamily=Roboto;fontSource=https%3A%2F%2Ffonts.googleapis.com%2Fcss2%3Ffamily%3DRoboto%3Aital%2Cwght%401%2C300%26display%3Dswapp;fontSize=9;fontColor=#FFFFFF;strokeColor=#1E3F78;strokeWidth=3;endFill=1;rounded=1;endSize=6;jumpSize=6;exitX=1;exitY=0.5;exitDx=0;exitDy=0;entryX=0.25;entryY=1;entryDx=0;entryDy=0;" parent="5euBJaOUCBgd8RF8ccWw-1" source="5euBJaOUCBgd8RF8ccWw-27" target="5euBJaOUCBgd8RF8ccWw-16" edge="1">
                    <mxGeometry width="50" height="50" relative="1" as="geometry">
                        <mxPoint x="613" y="215" as="sourcePoint"/>
                        <mxPoint x="663" y="510" as="targetPoint"/>
                        <Array as="points">
                            <mxPoint x="660" y="575"/>
                        </Array>
                    </mxGeometry>
                </mxCell>
                <mxCell id="5euBJaOUCBgd8RF8ccWw-31" value="&lt;div&gt;&lt;span style=&quot;font-weight: 400&quot;&gt;target = Project Underdog&lt;/span&gt;&lt;/div&gt;&lt;span style=&quot;font-weight: 400;&quot;&gt;provenance =&amp;nbsp;&lt;/span&gt;&lt;span style=&quot;font-weight: 400; background-color: initial;&quot;&gt;project&lt;/span&gt;&lt;span style=&quot;font-weight: 400;&quot;&gt;&lt;br&gt;&lt;/span&gt;" style="rounded=0;whiteSpace=wrap;html=1;strokeWidth=3;perimeterSpacing=0;glass=0;fontFamily=Roboto;fontSource=https%3A%2F%2Ffonts.googleapis.com%2Fcss%3Ffamily%3DRoboto;fontSize=11;fontStyle=1;spacing=2;strokeColor=#1E3F78;verticalAlign=top;fillColor=#EAEFF7;align=left;spacingLeft=4;" parent="5euBJaOUCBgd8RF8ccWw-1" vertex="1">
                    <mxGeometry x="633" y="440" width="140" height="40" as="geometry"/>
                </mxCell>
                <mxCell id="5euBJaOUCBgd8RF8ccWw-32" value="&lt;div&gt;&lt;span style=&quot;font-weight: 400&quot;&gt;target = Project Dinosaur&lt;/span&gt;&lt;/div&gt;&lt;span style=&quot;font-weight: 400;&quot;&gt;provenance =&amp;nbsp;&lt;/span&gt;&lt;span style=&quot;font-weight: 400; background-color: initial;&quot;&gt;project&lt;/span&gt;&lt;span style=&quot;font-weight: 400;&quot;&gt;&lt;br&gt;&lt;/span&gt;" style="rounded=0;whiteSpace=wrap;html=1;strokeWidth=3;perimeterSpacing=0;glass=0;fontFamily=Roboto;fontSource=https%3A%2F%2Ffonts.googleapis.com%2Fcss%3Ffamily%3DRoboto;fontSize=11;fontStyle=1;spacing=2;strokeColor=#1E3F78;verticalAlign=top;fillColor=#EAEFF7;align=left;spacingLeft=4;" parent="5euBJaOUCBgd8RF8ccWw-1" vertex="1">
                    <mxGeometry x="633" y="490" width="140" height="40" as="geometry"/>
                </mxCell>
                <mxCell id="5euBJaOUCBgd8RF8ccWw-33" value="" style="edgeStyle=elbowEdgeStyle;elbow=vertical;endArrow=block;html=1;fontFamily=Roboto;fontSource=https%3A%2F%2Ffonts.googleapis.com%2Fcss2%3Ffamily%3DRoboto%3Aital%2Cwght%401%2C300%26display%3Dswapp;fontSize=9;fontColor=#FFFFFF;strokeColor=#1E3F78;strokeWidth=3;endFill=1;rounded=1;endSize=6;jumpSize=6;exitX=1;exitY=0.5;exitDx=0;exitDy=0;entryX=0.25;entryY=0;entryDx=0;entryDy=0;" parent="5euBJaOUCBgd8RF8ccWw-1" source="5euBJaOUCBgd8RF8ccWw-13" edge="1">
                    <mxGeometry width="50" height="50" relative="1" as="geometry">
                        <mxPoint x="609.5" y="265" as="sourcePoint"/>
                        <mxPoint x="669.5" y="300" as="targetPoint"/>
                        <Array as="points">
                            <mxPoint x="679.5" y="265"/>
                        </Array>
                    </mxGeometry>
                </mxCell>
            </root>
        </mxGraphModel>
    </diagram>
    <diagram id="AsSSonLJ4-S33vi44JtP" name="Page-2">
        <mxGraphModel dx="1104" dy="768" grid="1" gridSize="10" guides="1" tooltips="1" connect="1" arrows="1" fold="1" page="1" pageScale="1" pageWidth="827" pageHeight="1169" math="0" shadow="0">
            <root>
                <mxCell id="eTLGzvpiNPRvSfPfDp1S-0"/>
                <mxCell id="eTLGzvpiNPRvSfPfDp1S-1" parent="eTLGzvpiNPRvSfPfDp1S-0"/>
                <mxCell id="C3m8-MuWolwYEita-Ie0-0" value="Projection&lt;br&gt;(PM Account)" style="rounded=0;whiteSpace=wrap;html=1;strokeWidth=2;perimeterSpacing=0;glass=0;strokeColor=none;fillColor=#EAEFF7;verticalAlign=top;" parent="eTLGzvpiNPRvSfPfDp1S-1" vertex="1">
                    <mxGeometry x="23" y="420" width="100" height="300" as="geometry"/>
                </mxCell>
                <mxCell id="C3m8-MuWolwYEita-Ie0-1" value="" style="endArrow=none;html=1;strokeWidth=3;strokeColor=#1E3F78;rounded=1;fontFamily=Roboto;fontSource=https%3A%2F%2Ffonts.googleapis.com%2Fcss%3Ffamily%3DRoboto;fontSize=11;fontColor=#000000;endSize=6;elbow=vertical;jumpSize=6;entryX=0;entryY=0.5;entryDx=0;entryDy=0;exitX=0.25;exitY=0;exitDx=0;exitDy=0;edgeStyle=orthogonalEdgeStyle;" parent="eTLGzvpiNPRvSfPfDp1S-1" source="C3m8-MuWolwYEita-Ie0-3" target="C3m8-MuWolwYEita-Ie0-24" edge="1">
                    <mxGeometry width="50" height="50" relative="1" as="geometry">
                        <mxPoint x="63" y="589" as="sourcePoint"/>
                        <mxPoint x="85" y="508.75" as="targetPoint"/>
                    </mxGeometry>
                </mxCell>
                <mxCell id="C3m8-MuWolwYEita-Ie0-2" value="&lt;i&gt;User's record in Project Management system&lt;/i&gt;" style="text;html=1;strokeColor=none;fillColor=none;align=center;verticalAlign=middle;whiteSpace=wrap;rounded=0;" parent="eTLGzvpiNPRvSfPfDp1S-1" vertex="1">
                    <mxGeometry x="30.5" y="650" width="85" height="60" as="geometry"/>
                </mxCell>
                <mxCell id="C3m8-MuWolwYEita-Ie0-3" value="project&lt;br&gt;&lt;span style=&quot;font-weight: normal&quot;&gt;(new value)&lt;br&gt;&lt;br&gt;&lt;/span&gt;&lt;span style=&quot;font-weight: normal&quot;&gt;&lt;font face=&quot;Courier New&quot;&gt;overlord&lt;br&gt;underdog&lt;/font&gt;&lt;br&gt;&lt;/span&gt;" style="rounded=0;whiteSpace=wrap;html=1;strokeWidth=3;perimeterSpacing=0;glass=0;fontFamily=Roboto;fontSource=https%3A%2F%2Ffonts.googleapis.com%2Fcss%3Ffamily%3DRoboto;fontSize=11;fontStyle=1;spacing=2;strokeColor=#1E3F78;verticalAlign=top;fillColor=#EAEFF7;" parent="eTLGzvpiNPRvSfPfDp1S-1" vertex="1">
                    <mxGeometry x="33" y="540" width="80" height="83.75" as="geometry"/>
                </mxCell>
                <mxCell id="C3m8-MuWolwYEita-Ie0-4" value="Focus&lt;br&gt;(User)" style="rounded=0;whiteSpace=wrap;html=1;strokeWidth=2;perimeterSpacing=0;glass=0;strokeColor=none;fillColor=#EAEFF7;verticalAlign=top;" parent="eTLGzvpiNPRvSfPfDp1S-1" vertex="1">
                    <mxGeometry x="553" y="30" width="257" height="740" as="geometry"/>
                </mxCell>
                <mxCell id="C3m8-MuWolwYEita-Ie0-5" value="Projection&lt;br&gt;(HR Account)" style="rounded=0;whiteSpace=wrap;html=1;strokeWidth=2;perimeterSpacing=0;glass=0;strokeColor=none;fillColor=#EAEFF7;verticalAlign=top;" parent="eTLGzvpiNPRvSfPfDp1S-1" vertex="1">
                    <mxGeometry x="23" y="20" width="100" height="300" as="geometry"/>
                </mxCell>
                <mxCell id="C3m8-MuWolwYEita-Ie0-6" value="&lt;font color=&quot;#1e3f78&quot; style=&quot;font-size: 22px&quot;&gt;Mapping A&lt;/font&gt;" style="rounded=0;whiteSpace=wrap;html=1;strokeWidth=3;perimeterSpacing=0;glass=0;strokeColor=#1E3F78;fontFamily=Roboto;fontSource=https%3A%2F%2Ffonts.googleapis.com%2Fcss%3Ffamily%3DRoboto;fontColor=#FFFFFF;fontSize=11;fontStyle=1;spacing=2;verticalAlign=top;fillColor=#E6E6E6;" parent="eTLGzvpiNPRvSfPfDp1S-1" vertex="1">
                    <mxGeometry x="143" y="130" width="390" height="220" as="geometry"/>
                </mxCell>
                <mxCell id="C3m8-MuWolwYEita-Ie0-7" value="Expression&lt;br&gt;&lt;span style=&quot;font-weight: normal&quot;&gt;assignmentTargetSearch&lt;/span&gt;" style="rounded=0;whiteSpace=wrap;html=1;strokeWidth=3;perimeterSpacing=0;glass=0;fontFamily=Roboto;fontSource=https%3A%2F%2Ffonts.googleapis.com%2Fcss%3Ffamily%3DRoboto;fontSize=11;fontStyle=1;spacing=2;strokeColor=#1E3F78;verticalAlign=top;" parent="eTLGzvpiNPRvSfPfDp1S-1" vertex="1">
                    <mxGeometry x="173" y="240" width="156" height="50" as="geometry"/>
                </mxCell>
                <mxCell id="C3m8-MuWolwYEita-Ie0-8" value="" style="edgeStyle=elbowEdgeStyle;elbow=horizontal;endArrow=block;html=1;fontFamily=Roboto;fontSource=https%3A%2F%2Ffonts.googleapis.com%2Fcss2%3Ffamily%3DRoboto%3Aital%2Cwght%401%2C300%26display%3Dswapp;fontSize=9;fontColor=#FFFFFF;strokeColor=#1E3F78;strokeWidth=3;endFill=1;exitX=1;exitY=0.5;exitDx=0;exitDy=0;" parent="eTLGzvpiNPRvSfPfDp1S-1" source="C3m8-MuWolwYEita-Ie0-9" target="C3m8-MuWolwYEita-Ie0-7" edge="1">
                    <mxGeometry width="50" height="50" relative="1" as="geometry">
                        <mxPoint x="371" y="495.25" as="sourcePoint"/>
                        <mxPoint x="449.5" y="330.0000000000001" as="targetPoint"/>
                        <Array as="points">
                            <mxPoint x="256" y="220"/>
                        </Array>
                    </mxGeometry>
                </mxCell>
                <mxCell id="C3m8-MuWolwYEita-Ie0-9" value="&lt;font color=&quot;#1e3f78&quot;&gt;Source&lt;br&gt;&lt;span style=&quot;font-weight: 400&quot;&gt;attributes/jobCode&lt;/span&gt;&lt;br&gt;&lt;/font&gt;" style="rounded=0;whiteSpace=wrap;html=1;strokeWidth=3;perimeterSpacing=0;glass=0;strokeColor=#1E3F78;fontFamily=Roboto;fontSource=https%3A%2F%2Ffonts.googleapis.com%2Fcss%3Ffamily%3DRoboto;fontColor=#FFFFFF;fontSize=11;fontStyle=1;spacing=0;verticalAlign=top;fillColor=#E6E6E6;" parent="eTLGzvpiNPRvSfPfDp1S-1" vertex="1">
                    <mxGeometry x="97" y="170" width="120" height="37.5" as="geometry"/>
                </mxCell>
                <mxCell id="C3m8-MuWolwYEita-Ie0-10" value="&lt;span style=&quot;color: rgb(30, 63, 120); font-weight: 400;&quot;&gt;default&amp;nbsp;&lt;/span&gt;&lt;font color=&quot;#1e3f78&quot;&gt;&lt;span style=&quot;font-weight: 400&quot;&gt;range&lt;/span&gt;&lt;/font&gt;" style="rounded=1;whiteSpace=wrap;html=1;strokeWidth=3;perimeterSpacing=0;glass=0;strokeColor=#1E3F78;fontFamily=Roboto;fontSource=https%3A%2F%2Ffonts.googleapis.com%2Fcss%3Ffamily%3DRoboto;fontColor=#FFFFFF;fontSize=11;fontStyle=1;spacing=2;verticalAlign=bottom;fillColor=#E6E6E6;dashed=1;dashPattern=1 1;arcSize=9;" parent="eTLGzvpiNPRvSfPfDp1S-1" vertex="1">
                    <mxGeometry x="430" y="230" width="153" height="100" as="geometry"/>
                </mxCell>
                <mxCell id="C3m8-MuWolwYEita-Ie0-11" value="&lt;font color=&quot;#1e3f78&quot;&gt;Target&lt;br&gt;&lt;span style=&quot;font-weight: 400&quot;&gt;assignment&lt;/span&gt;&lt;br&gt;&lt;/font&gt;" style="rounded=0;whiteSpace=wrap;html=1;strokeWidth=3;perimeterSpacing=0;glass=0;strokeColor=#1E3F78;fontFamily=Roboto;fontSource=https%3A%2F%2Ffonts.googleapis.com%2Fcss%3Ffamily%3DRoboto;fontColor=#FFFFFF;fontSize=11;fontStyle=1;spacing=0;verticalAlign=top;fillColor=#E6E6E6;" parent="eTLGzvpiNPRvSfPfDp1S-1" vertex="1">
                    <mxGeometry x="410" y="246.25" width="193" height="37.5" as="geometry"/>
                </mxCell>
                <mxCell id="C3m8-MuWolwYEita-Ie0-12" value="" style="endArrow=none;html=1;strokeWidth=3;strokeColor=#1E3F78;rounded=0;fontFamily=Courier New;fontSize=14;fontColor=#000000;exitX=0;exitY=0.5;exitDx=0;exitDy=0;entryX=1;entryY=0.5;entryDx=0;entryDy=0;edgeStyle=elbowEdgeStyle;elbow=vertical;endSize=6;jumpSize=6;" parent="eTLGzvpiNPRvSfPfDp1S-1" source="C3m8-MuWolwYEita-Ie0-11" target="C3m8-MuWolwYEita-Ie0-7" edge="1">
                    <mxGeometry width="50" height="50" relative="1" as="geometry">
                        <mxPoint x="323" y="267.5" as="sourcePoint"/>
                        <mxPoint x="513.0000000000002" y="252.5000000000001" as="targetPoint"/>
                    </mxGeometry>
                </mxCell>
                <mxCell id="C3m8-MuWolwYEita-Ie0-13" value="" style="endArrow=none;html=1;strokeWidth=3;strokeColor=#1E3F78;rounded=1;fontFamily=Roboto;fontSource=https%3A%2F%2Ffonts.googleapis.com%2Fcss%3Ffamily%3DRoboto;fontSize=11;fontColor=#000000;endSize=6;elbow=vertical;jumpSize=6;entryX=0;entryY=0.5;entryDx=0;entryDy=0;exitX=0.446;exitY=0.998;exitDx=0;exitDy=0;exitPerimeter=0;edgeStyle=orthogonalEdgeStyle;" parent="eTLGzvpiNPRvSfPfDp1S-1" source="C3m8-MuWolwYEita-Ie0-20" target="C3m8-MuWolwYEita-Ie0-9" edge="1">
                    <mxGeometry width="50" height="50" relative="1" as="geometry">
                        <mxPoint x="63" y="189" as="sourcePoint"/>
                        <mxPoint x="513" y="360" as="targetPoint"/>
                    </mxGeometry>
                </mxCell>
                <mxCell id="C3m8-MuWolwYEita-Ie0-15" value="assignment&lt;br&gt;&lt;span style=&quot;font-weight: normal&quot;&gt;(old values)&lt;/span&gt;" style="rounded=0;whiteSpace=wrap;html=1;strokeWidth=3;perimeterSpacing=0;glass=0;fontFamily=Roboto;fontSource=https%3A%2F%2Ffonts.googleapis.com%2Fcss%3Ffamily%3DRoboto;fontSize=11;fontStyle=1;spacing=2;strokeColor=#1E3F78;verticalAlign=top;fillColor=#EAEFF7;" parent="eTLGzvpiNPRvSfPfDp1S-1" vertex="1">
                    <mxGeometry x="623" y="300" width="160" height="240" as="geometry"/>
                </mxCell>
                <mxCell id="C3m8-MuWolwYEita-Ie0-16" value="&lt;i&gt;User's record in HR system&lt;/i&gt;" style="text;html=1;strokeColor=none;fillColor=none;align=center;verticalAlign=middle;whiteSpace=wrap;rounded=0;" parent="eTLGzvpiNPRvSfPfDp1S-1" vertex="1">
                    <mxGeometry x="30.5" y="270" width="85" height="40" as="geometry"/>
                </mxCell>
                <mxCell id="C3m8-MuWolwYEita-Ie0-17" value="&lt;div&gt;&lt;span style=&quot;font-weight: 400&quot;&gt;target = Sales Assistant&lt;/span&gt;&lt;/div&gt;&lt;span style=&quot;font-weight: 400;&quot;&gt;provenance =&amp;nbsp;&lt;/span&gt;&lt;span style=&quot;font-weight: 400; background-color: initial;&quot;&gt;HR&lt;/span&gt;&lt;span style=&quot;font-weight: 400;&quot;&gt;&lt;br&gt;&lt;/span&gt;" style="rounded=0;whiteSpace=wrap;html=1;strokeWidth=3;perimeterSpacing=0;glass=0;fontFamily=Roboto;fontSource=https%3A%2F%2Ffonts.googleapis.com%2Fcss%3Ffamily%3DRoboto;fontSize=11;fontStyle=1;spacing=2;strokeColor=#1E3F78;verticalAlign=top;fillColor=#EAEFF7;align=left;spacingLeft=4;" parent="eTLGzvpiNPRvSfPfDp1S-1" vertex="1">
                    <mxGeometry x="633" y="340" width="140" height="40" as="geometry"/>
                </mxCell>
                <mxCell id="C3m8-MuWolwYEita-Ie0-18" value="&lt;div&gt;&lt;span style=&quot;font-weight: 400&quot;&gt;target = Business Analyst&lt;/span&gt;&lt;/div&gt;&lt;span style=&quot;font-weight: 400;&quot;&gt;provenance =&amp;nbsp;&lt;/span&gt;&lt;span style=&quot;font-weight: 400; background-color: initial;&quot;&gt;manual&lt;/span&gt;&lt;span style=&quot;font-weight: 400;&quot;&gt;&lt;br&gt;&lt;/span&gt;" style="rounded=0;whiteSpace=wrap;html=1;strokeWidth=3;perimeterSpacing=0;glass=0;fontFamily=Roboto;fontSource=https%3A%2F%2Ffonts.googleapis.com%2Fcss%3Ffamily%3DRoboto;fontSize=11;fontStyle=1;spacing=2;strokeColor=#1E3F78;verticalAlign=top;fillColor=#EAEFF7;align=left;spacingLeft=4;" parent="eTLGzvpiNPRvSfPfDp1S-1" vertex="1">
                    <mxGeometry x="633" y="390" width="140" height="40" as="geometry"/>
                </mxCell>
                <mxCell id="C3m8-MuWolwYEita-Ie0-20" value="jobCode&lt;br&gt;&lt;span style=&quot;font-weight: normal&quot;&gt;(new value)&lt;br&gt;&lt;br&gt;&lt;/span&gt;&lt;span style=&quot;font-weight: normal&quot;&gt;&lt;font face=&quot;Courier New&quot;&gt;30054&lt;/font&gt;&lt;br&gt;&lt;/span&gt;" style="rounded=0;whiteSpace=wrap;html=1;strokeWidth=3;perimeterSpacing=0;glass=0;fontFamily=Roboto;fontSource=https%3A%2F%2Ffonts.googleapis.com%2Fcss%3Ffamily%3DRoboto;fontSize=11;fontStyle=1;spacing=2;strokeColor=#1E3F78;verticalAlign=top;fillColor=#EAEFF7;" parent="eTLGzvpiNPRvSfPfDp1S-1" vertex="1">
                    <mxGeometry x="33" y="82.5" width="80" height="67.5" as="geometry"/>
                </mxCell>
                <mxCell id="C3m8-MuWolwYEita-Ie0-21" value="&lt;font color=&quot;#1e3f78&quot; style=&quot;font-size: 22px&quot;&gt;Mapping B&lt;/font&gt;" style="rounded=0;whiteSpace=wrap;html=1;strokeWidth=3;perimeterSpacing=0;glass=0;strokeColor=#1E3F78;fontFamily=Roboto;fontSource=https%3A%2F%2Ffonts.googleapis.com%2Fcss%3Ffamily%3DRoboto;fontColor=#FFFFFF;fontSize=11;fontStyle=1;spacing=2;verticalAlign=top;fillColor=#E6E6E6;" parent="eTLGzvpiNPRvSfPfDp1S-1" vertex="1">
                    <mxGeometry x="143" y="440" width="390" height="220" as="geometry"/>
                </mxCell>
                <mxCell id="C3m8-MuWolwYEita-Ie0-22" value="Expression&lt;br&gt;&lt;span style=&quot;font-weight: normal&quot;&gt;assignmentTargetSearch&lt;/span&gt;" style="rounded=0;whiteSpace=wrap;html=1;strokeWidth=3;perimeterSpacing=0;glass=0;fontFamily=Roboto;fontSource=https%3A%2F%2Ffonts.googleapis.com%2Fcss%3Ffamily%3DRoboto;fontSize=11;fontStyle=1;spacing=2;strokeColor=#1E3F78;verticalAlign=top;" parent="eTLGzvpiNPRvSfPfDp1S-1" vertex="1">
                    <mxGeometry x="173" y="550" width="156" height="50" as="geometry"/>
                </mxCell>
                <mxCell id="C3m8-MuWolwYEita-Ie0-23" value="" style="edgeStyle=elbowEdgeStyle;elbow=horizontal;endArrow=block;html=1;fontFamily=Roboto;fontSource=https%3A%2F%2Ffonts.googleapis.com%2Fcss2%3Ffamily%3DRoboto%3Aital%2Cwght%401%2C300%26display%3Dswapp;fontSize=9;fontColor=#FFFFFF;strokeColor=#1E3F78;strokeWidth=3;endFill=1;exitX=1;exitY=0.5;exitDx=0;exitDy=0;" parent="eTLGzvpiNPRvSfPfDp1S-1" source="C3m8-MuWolwYEita-Ie0-24" target="C3m8-MuWolwYEita-Ie0-22" edge="1">
                    <mxGeometry width="50" height="50" relative="1" as="geometry">
                        <mxPoint x="371" y="805.25" as="sourcePoint"/>
                        <mxPoint x="449.5" y="640.0000000000001" as="targetPoint"/>
                        <Array as="points">
                            <mxPoint x="256" y="530"/>
                        </Array>
                    </mxGeometry>
                </mxCell>
                <mxCell id="C3m8-MuWolwYEita-Ie0-24" value="&lt;font color=&quot;#1e3f78&quot;&gt;Source&lt;br&gt;&lt;span style=&quot;font-weight: 400&quot;&gt;attributes/project&lt;/span&gt;&lt;br&gt;&lt;/font&gt;" style="rounded=0;whiteSpace=wrap;html=1;strokeWidth=3;perimeterSpacing=0;glass=0;strokeColor=#1E3F78;fontFamily=Roboto;fontSource=https%3A%2F%2Ffonts.googleapis.com%2Fcss%3Ffamily%3DRoboto;fontColor=#FFFFFF;fontSize=11;fontStyle=1;spacing=0;verticalAlign=top;fillColor=#E6E6E6;" parent="eTLGzvpiNPRvSfPfDp1S-1" vertex="1">
                    <mxGeometry x="97" y="480" width="120" height="37.5" as="geometry"/>
                </mxCell>
                <mxCell id="C3m8-MuWolwYEita-Ie0-25" value="&lt;span style=&quot;color: rgb(30, 63, 120); font-weight: 400;&quot;&gt;default&amp;nbsp;&lt;/span&gt;&lt;font color=&quot;#1e3f78&quot;&gt;&lt;span style=&quot;font-weight: 400&quot;&gt;range&lt;/span&gt;&lt;/font&gt;" style="rounded=1;whiteSpace=wrap;html=1;strokeWidth=3;perimeterSpacing=0;glass=0;strokeColor=#1E3F78;fontFamily=Roboto;fontSource=https%3A%2F%2Ffonts.googleapis.com%2Fcss%3Ffamily%3DRoboto;fontColor=#FFFFFF;fontSize=11;fontStyle=1;spacing=2;verticalAlign=bottom;fillColor=#E6E6E6;dashed=1;dashPattern=1 1;arcSize=9;" parent="eTLGzvpiNPRvSfPfDp1S-1" vertex="1">
                    <mxGeometry x="430" y="540" width="153" height="100" as="geometry"/>
                </mxCell>
                <mxCell id="C3m8-MuWolwYEita-Ie0-26" value="&lt;font color=&quot;#1e3f78&quot;&gt;Target&lt;br&gt;&lt;span style=&quot;font-weight: 400&quot;&gt;assignment&lt;/span&gt;&lt;br&gt;&lt;/font&gt;" style="rounded=0;whiteSpace=wrap;html=1;strokeWidth=3;perimeterSpacing=0;glass=0;strokeColor=#1E3F78;fontFamily=Roboto;fontSource=https%3A%2F%2Ffonts.googleapis.com%2Fcss%3Ffamily%3DRoboto;fontColor=#FFFFFF;fontSize=11;fontStyle=1;spacing=0;verticalAlign=top;fillColor=#E6E6E6;" parent="eTLGzvpiNPRvSfPfDp1S-1" vertex="1">
                    <mxGeometry x="410" y="556.25" width="193" height="37.5" as="geometry"/>
                </mxCell>
                <mxCell id="C3m8-MuWolwYEita-Ie0-27" value="" style="endArrow=none;html=1;strokeWidth=3;strokeColor=#1E3F78;rounded=0;fontFamily=Courier New;fontSize=14;fontColor=#000000;exitX=0;exitY=0.5;exitDx=0;exitDy=0;entryX=1;entryY=0.5;entryDx=0;entryDy=0;edgeStyle=elbowEdgeStyle;elbow=vertical;endSize=6;jumpSize=6;" parent="eTLGzvpiNPRvSfPfDp1S-1" source="C3m8-MuWolwYEita-Ie0-26" target="C3m8-MuWolwYEita-Ie0-22" edge="1">
                    <mxGeometry width="50" height="50" relative="1" as="geometry">
                        <mxPoint x="323" y="577.5" as="sourcePoint"/>
                        <mxPoint x="513.0000000000002" y="562.5000000000001" as="targetPoint"/>
                    </mxGeometry>
                </mxCell>
                <mxCell id="C3m8-MuWolwYEita-Ie0-29" value="" style="edgeStyle=elbowEdgeStyle;elbow=vertical;endArrow=block;html=1;fontFamily=Roboto;fontSource=https%3A%2F%2Ffonts.googleapis.com%2Fcss2%3Ffamily%3DRoboto%3Aital%2Cwght%401%2C300%26display%3Dswapp;fontSize=9;fontColor=#FFFFFF;strokeColor=#1E3F78;strokeWidth=3;endFill=1;rounded=1;endSize=6;jumpSize=6;exitX=1;exitY=0.5;exitDx=0;exitDy=0;entryX=0.25;entryY=1;entryDx=0;entryDy=0;" parent="eTLGzvpiNPRvSfPfDp1S-1" source="C3m8-MuWolwYEita-Ie0-26" target="C3m8-MuWolwYEita-Ie0-15" edge="1">
                    <mxGeometry width="50" height="50" relative="1" as="geometry">
                        <mxPoint x="613" y="215" as="sourcePoint"/>
                        <mxPoint x="663" y="510" as="targetPoint"/>
                        <Array as="points">
                            <mxPoint x="660" y="575"/>
                        </Array>
                    </mxGeometry>
                </mxCell>
                <mxCell id="C3m8-MuWolwYEita-Ie0-30" value="&lt;div&gt;&lt;span style=&quot;font-weight: 400&quot;&gt;target = Project Underdog&lt;/span&gt;&lt;/div&gt;&lt;span style=&quot;font-weight: 400;&quot;&gt;provenance =&amp;nbsp;&lt;/span&gt;&lt;span style=&quot;font-weight: 400; background-color: initial;&quot;&gt;project&lt;/span&gt;&lt;span style=&quot;font-weight: 400;&quot;&gt;&lt;br&gt;&lt;/span&gt;" style="rounded=0;whiteSpace=wrap;html=1;strokeWidth=3;perimeterSpacing=0;glass=0;fontFamily=Roboto;fontSource=https%3A%2F%2Ffonts.googleapis.com%2Fcss%3Ffamily%3DRoboto;fontSize=11;fontStyle=1;spacing=2;strokeColor=#1E3F78;verticalAlign=top;fillColor=#EAEFF7;align=left;spacingLeft=4;" parent="eTLGzvpiNPRvSfPfDp1S-1" vertex="1">
                    <mxGeometry x="633" y="440" width="140" height="40" as="geometry"/>
                </mxCell>
                <mxCell id="C3m8-MuWolwYEita-Ie0-31" value="&lt;div&gt;&lt;span style=&quot;font-weight: 400&quot;&gt;target = Project Dinosaur&lt;/span&gt;&lt;/div&gt;&lt;span style=&quot;font-weight: 400;&quot;&gt;provenance =&amp;nbsp;&lt;/span&gt;&lt;span style=&quot;font-weight: 400; background-color: initial;&quot;&gt;project&lt;/span&gt;&lt;span style=&quot;font-weight: 400;&quot;&gt;&lt;br&gt;&lt;/span&gt;" style="rounded=0;whiteSpace=wrap;html=1;strokeWidth=3;perimeterSpacing=0;glass=0;fontFamily=Roboto;fontSource=https%3A%2F%2Ffonts.googleapis.com%2Fcss%3Ffamily%3DRoboto;fontSize=11;fontStyle=1;spacing=2;strokeColor=#1E3F78;verticalAlign=top;fillColor=#EAEFF7;align=left;spacingLeft=4;" parent="eTLGzvpiNPRvSfPfDp1S-1" vertex="1">
                    <mxGeometry x="633" y="490" width="140" height="40" as="geometry"/>
                </mxCell>
                <mxCell id="cRFwCkt3BZLn0sY_JaSE-0" value="" style="edgeStyle=elbowEdgeStyle;elbow=vertical;endArrow=block;html=1;fontFamily=Roboto;fontSource=https%3A%2F%2Ffonts.googleapis.com%2Fcss2%3Ffamily%3DRoboto%3Aital%2Cwght%401%2C300%26display%3Dswapp;fontSize=9;fontColor=#FFFFFF;strokeColor=#1E3F78;strokeWidth=3;endFill=1;rounded=1;endSize=6;jumpSize=6;exitX=1;exitY=0.5;exitDx=0;exitDy=0;entryX=0.25;entryY=0;entryDx=0;entryDy=0;" parent="eTLGzvpiNPRvSfPfDp1S-1" source="C3m8-MuWolwYEita-Ie0-11" edge="1">
                    <mxGeometry width="50" height="50" relative="1" as="geometry">
                        <mxPoint x="609.5" y="265" as="sourcePoint"/>
                        <mxPoint x="669.5" y="300" as="targetPoint"/>
                        <Array as="points">
                            <mxPoint x="679.5" y="265"/>
                        </Array>
                    </mxGeometry>
                </mxCell>
                <mxCell id="cRFwCkt3BZLn0sY_JaSE-1" value="&lt;div style=&quot;text-align: left&quot;&gt;Delta&lt;/div&gt;" style="shape=callout;whiteSpace=wrap;html=1;perimeter=calloutPerimeter;dashed=1;dashPattern=1 1;fillColor=#EAEFF7;position2=0.24;size=30;position=0.24;verticalAlign=top;" parent="eTLGzvpiNPRvSfPfDp1S-1" vertex="1">
                    <mxGeometry x="596.5" y="90" width="200" height="170" as="geometry"/>
                </mxCell>
                <mxCell id="cRFwCkt3BZLn0sY_JaSE-2" value="&lt;div&gt;&lt;span style=&quot;font-weight: 400&quot;&gt;target = Sales Assistant&lt;/span&gt;&lt;/div&gt;&lt;span style=&quot;font-weight: 400;&quot;&gt;provenance =&amp;nbsp;&lt;/span&gt;&lt;span style=&quot;font-weight: 400; background-color: initial;&quot;&gt;HR&lt;/span&gt;&lt;span style=&quot;font-weight: 400;&quot;&gt;&lt;br&gt;&lt;/span&gt;" style="rounded=0;whiteSpace=wrap;html=1;strokeWidth=1;perimeterSpacing=0;glass=0;fontFamily=Roboto;fontSource=https%3A%2F%2Ffonts.googleapis.com%2Fcss%3Ffamily%3DRoboto;fontSize=11;fontStyle=1;spacing=2;strokeColor=#1E3F78;verticalAlign=top;fillColor=#EAEFF7;align=left;spacingLeft=4;" parent="eTLGzvpiNPRvSfPfDp1S-1" vertex="1">
                    <mxGeometry x="649.5" y="170" width="140" height="40" as="geometry"/>
                </mxCell>
                <mxCell id="cRFwCkt3BZLn0sY_JaSE-3" value="&lt;div&gt;&lt;span style=&quot;font-weight: 400&quot;&gt;target = Sales Manager&lt;/span&gt;&lt;/div&gt;&lt;span style=&quot;font-weight: 400;&quot;&gt;provenance =&amp;nbsp;&lt;/span&gt;&lt;span style=&quot;font-weight: 400; background-color: initial;&quot;&gt;HR&lt;/span&gt;&lt;span style=&quot;font-weight: 400;&quot;&gt;&lt;br&gt;&lt;/span&gt;" style="rounded=0;whiteSpace=wrap;html=1;strokeWidth=1;perimeterSpacing=0;glass=0;fontFamily=Roboto;fontSource=https%3A%2F%2Ffonts.googleapis.com%2Fcss%3Ffamily%3DRoboto;fontSize=11;fontStyle=1;spacing=2;strokeColor=#1E3F78;verticalAlign=top;fillColor=#EAEFF7;align=left;spacingLeft=4;" parent="eTLGzvpiNPRvSfPfDp1S-1" vertex="1">
                    <mxGeometry x="649.5" y="120" width="140" height="40" as="geometry"/>
                </mxCell>
                <mxCell id="cRFwCkt3BZLn0sY_JaSE-4" value="" style="shape=cross;whiteSpace=wrap;html=1;fillColor=#37B34A;" parent="eTLGzvpiNPRvSfPfDp1S-1" vertex="1">
                    <mxGeometry x="603" y="122.5" width="40" height="35" as="geometry"/>
                </mxCell>
                <mxCell id="cRFwCkt3BZLn0sY_JaSE-5" value="" style="rounded=0;whiteSpace=wrap;html=1;fillColor=#F05A28;" parent="eTLGzvpiNPRvSfPfDp1S-1" vertex="1">
                    <mxGeometry x="608" y="185" width="30" height="10" as="geometry"/>
                </mxCell>
                <mxCell id="ck9vxn7s1DO7XpF6_N_o-0" value="&lt;div style=&quot;text-align: left&quot;&gt;&lt;br&gt;&lt;/div&gt;" style="shape=callout;whiteSpace=wrap;html=1;perimeter=calloutPerimeter;dashed=1;dashPattern=1 1;fillColor=#EAEFF7;position2=0.84;size=30;position=0.74;verticalAlign=top;rotation=-180;base=21;" parent="eTLGzvpiNPRvSfPfDp1S-1" vertex="1">
                    <mxGeometry x="596.5" y="580" width="200" height="170" as="geometry"/>
                </mxCell>
                <mxCell id="ck9vxn7s1DO7XpF6_N_o-1" value="&lt;meta charset=&quot;utf-8&quot;&gt;&lt;span style=&quot;color: rgb(0, 0, 0); font-family: helvetica; font-size: 12px; font-style: normal; font-weight: 400; letter-spacing: normal; text-align: left; text-indent: 0px; text-transform: none; word-spacing: 0px; background-color: rgb(234, 239, 247); display: inline; float: none;&quot;&gt;Delta&lt;/span&gt;" style="text;whiteSpace=wrap;html=1;" parent="eTLGzvpiNPRvSfPfDp1S-1" vertex="1">
                    <mxGeometry x="671.5" y="610" width="50" height="30" as="geometry"/>
                </mxCell>
                <mxCell id="ck9vxn7s1DO7XpF6_N_o-2" value="&lt;div&gt;&lt;span style=&quot;font-weight: 400&quot;&gt;target = Project Dinosaur&lt;/span&gt;&lt;/div&gt;&lt;span style=&quot;font-weight: 400;&quot;&gt;provenance =&amp;nbsp;&lt;/span&gt;&lt;span style=&quot;font-weight: 400; background-color: initial;&quot;&gt;project&lt;/span&gt;&lt;span style=&quot;font-weight: 400;&quot;&gt;&lt;br&gt;&lt;/span&gt;" style="rounded=0;whiteSpace=wrap;html=1;strokeWidth=1;perimeterSpacing=0;glass=0;fontFamily=Roboto;fontSource=https%3A%2F%2Ffonts.googleapis.com%2Fcss%3Ffamily%3DRoboto;fontSize=11;fontStyle=1;spacing=2;strokeColor=#1E3F78;verticalAlign=top;fillColor=#EAEFF7;align=left;spacingLeft=4;" parent="eTLGzvpiNPRvSfPfDp1S-1" vertex="1">
                    <mxGeometry x="649.5" y="690" width="140" height="40" as="geometry"/>
                </mxCell>
                <mxCell id="ck9vxn7s1DO7XpF6_N_o-3" value="&lt;div&gt;&lt;span style=&quot;font-weight: 400&quot;&gt;target = Project Overlord&lt;/span&gt;&lt;/div&gt;&lt;span style=&quot;font-weight: 400;&quot;&gt;provenance =&amp;nbsp;&lt;/span&gt;&lt;span style=&quot;font-weight: 400; background-color: initial;&quot;&gt;project&lt;/span&gt;&lt;span style=&quot;font-weight: 400;&quot;&gt;&lt;br&gt;&lt;/span&gt;" style="rounded=0;whiteSpace=wrap;html=1;strokeWidth=1;perimeterSpacing=0;glass=0;fontFamily=Roboto;fontSource=https%3A%2F%2Ffonts.googleapis.com%2Fcss%3Ffamily%3DRoboto;fontSize=11;fontStyle=1;spacing=2;strokeColor=#1E3F78;verticalAlign=top;fillColor=#EAEFF7;align=left;spacingLeft=4;" parent="eTLGzvpiNPRvSfPfDp1S-1" vertex="1">
                    <mxGeometry x="649.5" y="640" width="140" height="40" as="geometry"/>
                </mxCell>
                <mxCell id="ck9vxn7s1DO7XpF6_N_o-4" value="" style="shape=cross;whiteSpace=wrap;html=1;fillColor=#37B34A;" parent="eTLGzvpiNPRvSfPfDp1S-1" vertex="1">
                    <mxGeometry x="603" y="642.5" width="40" height="35" as="geometry"/>
                </mxCell>
                <mxCell id="ck9vxn7s1DO7XpF6_N_o-5" value="" style="rounded=0;whiteSpace=wrap;html=1;fillColor=#F05A28;" parent="eTLGzvpiNPRvSfPfDp1S-1" vertex="1">
                    <mxGeometry x="608" y="705" width="30" height="10" as="geometry"/>
                </mxCell>
                <mxCell id="hyuqfnuYUEfdqGaqAURt-0" value="&lt;span style=&quot;font-size: 11px&quot;&gt;name == &quot;HR&quot;&lt;/span&gt;" style="rounded=0;whiteSpace=wrap;html=1;dashed=1;dashPattern=1 1;fontFamily=Courier New;fontSize=14;fillColor=none;strokeColor=none;" vertex="1" parent="eTLGzvpiNPRvSfPfDp1S-1">
                    <mxGeometry x="286" y="160" width="104" height="20" as="geometry"/>
                </mxCell>
                <mxCell id="hyuqfnuYUEfdqGaqAURt-1" value="&lt;span style=&quot;font-size: 11px&quot;&gt;name == &quot;project&quot;&lt;/span&gt;" style="rounded=0;whiteSpace=wrap;html=1;dashed=1;dashPattern=1 1;fontFamily=Courier New;fontSize=14;fillColor=none;strokeColor=none;" vertex="1" parent="eTLGzvpiNPRvSfPfDp1S-1">
                    <mxGeometry x="274" y="470" width="140" height="20" as="geometry"/>
                </mxCell>
            </root>
        </mxGraphModel>
    </diagram>
    <diagram name="Page-3" id="HGNmT-vYhf2U5D4qi3nI">
        <mxGraphModel dx="1104" dy="768" grid="1" gridSize="10" guides="1" tooltips="1" connect="1" arrows="1" fold="1" page="1" pageScale="1" pageWidth="827" pageHeight="1169" math="0" shadow="0">
            <root>
                <mxCell id="-cuk2yoH8M7ZRQOfJtpF-0"/>
                <mxCell id="-cuk2yoH8M7ZRQOfJtpF-1" parent="-cuk2yoH8M7ZRQOfJtpF-0"/>
                <mxCell id="-cuk2yoH8M7ZRQOfJtpF-2" value="Projection&lt;br&gt;(PM Account)" style="rounded=0;whiteSpace=wrap;html=1;strokeWidth=2;perimeterSpacing=0;glass=0;strokeColor=none;fillColor=#EAEFF7;verticalAlign=top;" parent="-cuk2yoH8M7ZRQOfJtpF-1" vertex="1">
                    <mxGeometry x="23" y="420" width="100" height="300" as="geometry"/>
                </mxCell>
                <mxCell id="-cuk2yoH8M7ZRQOfJtpF-3" value="" style="endArrow=none;html=1;strokeWidth=3;strokeColor=#1E3F78;rounded=1;fontFamily=Roboto;fontSource=https%3A%2F%2Ffonts.googleapis.com%2Fcss%3Ffamily%3DRoboto;fontSize=11;fontColor=#000000;endSize=6;elbow=vertical;jumpSize=6;entryX=0;entryY=0.5;entryDx=0;entryDy=0;exitX=0.25;exitY=0;exitDx=0;exitDy=0;edgeStyle=orthogonalEdgeStyle;" parent="-cuk2yoH8M7ZRQOfJtpF-1" source="-cuk2yoH8M7ZRQOfJtpF-5" target="-cuk2yoH8M7ZRQOfJtpF-25" edge="1">
                    <mxGeometry width="50" height="50" relative="1" as="geometry">
                        <mxPoint x="63" y="589" as="sourcePoint"/>
                        <mxPoint x="85" y="508.75" as="targetPoint"/>
                    </mxGeometry>
                </mxCell>
                <mxCell id="-cuk2yoH8M7ZRQOfJtpF-4" value="&lt;i&gt;User's record in Project Management system&lt;/i&gt;" style="text;html=1;strokeColor=none;fillColor=none;align=center;verticalAlign=middle;whiteSpace=wrap;rounded=0;" parent="-cuk2yoH8M7ZRQOfJtpF-1" vertex="1">
                    <mxGeometry x="30.5" y="650" width="85" height="60" as="geometry"/>
                </mxCell>
                <mxCell id="-cuk2yoH8M7ZRQOfJtpF-5" value="project&lt;br&gt;&lt;span style=&quot;font-weight: normal&quot;&gt;(new value)&lt;br&gt;&lt;br&gt;&lt;/span&gt;&lt;span style=&quot;font-weight: normal&quot;&gt;&lt;font face=&quot;Courier New&quot;&gt;overlord&lt;br&gt;underdog&lt;/font&gt;&lt;br&gt;&lt;/span&gt;" style="rounded=0;whiteSpace=wrap;html=1;strokeWidth=3;perimeterSpacing=0;glass=0;fontFamily=Roboto;fontSource=https%3A%2F%2Ffonts.googleapis.com%2Fcss%3Ffamily%3DRoboto;fontSize=11;fontStyle=1;spacing=2;strokeColor=#1E3F78;verticalAlign=top;fillColor=#EAEFF7;" parent="-cuk2yoH8M7ZRQOfJtpF-1" vertex="1">
                    <mxGeometry x="33" y="540" width="80" height="83.75" as="geometry"/>
                </mxCell>
                <mxCell id="-cuk2yoH8M7ZRQOfJtpF-6" value="Focus&lt;br&gt;(User)" style="rounded=0;whiteSpace=wrap;html=1;strokeWidth=2;perimeterSpacing=0;glass=0;strokeColor=none;fillColor=#EAEFF7;verticalAlign=top;" parent="-cuk2yoH8M7ZRQOfJtpF-1" vertex="1">
                    <mxGeometry x="553" y="30" width="257" height="740" as="geometry"/>
                </mxCell>
                <mxCell id="-cuk2yoH8M7ZRQOfJtpF-7" value="Projection&lt;br&gt;(HR Account)" style="rounded=0;whiteSpace=wrap;html=1;strokeWidth=2;perimeterSpacing=0;glass=0;strokeColor=none;fillColor=#EAEFF7;verticalAlign=top;" parent="-cuk2yoH8M7ZRQOfJtpF-1" vertex="1">
                    <mxGeometry x="23" y="20" width="100" height="300" as="geometry"/>
                </mxCell>
                <mxCell id="-cuk2yoH8M7ZRQOfJtpF-8" value="&lt;font color=&quot;#1e3f78&quot; style=&quot;font-size: 22px&quot;&gt;Mapping A&lt;/font&gt;" style="rounded=0;whiteSpace=wrap;html=1;strokeWidth=3;perimeterSpacing=0;glass=0;strokeColor=#1E3F78;fontFamily=Roboto;fontSource=https%3A%2F%2Ffonts.googleapis.com%2Fcss%3Ffamily%3DRoboto;fontColor=#FFFFFF;fontSize=11;fontStyle=1;spacing=2;verticalAlign=top;fillColor=#E6E6E6;" parent="-cuk2yoH8M7ZRQOfJtpF-1" vertex="1">
                    <mxGeometry x="143" y="130" width="390" height="220" as="geometry"/>
                </mxCell>
                <mxCell id="-cuk2yoH8M7ZRQOfJtpF-9" value="Expression&lt;br&gt;&lt;span style=&quot;font-weight: normal&quot;&gt;assignmentTargetSearch&lt;/span&gt;" style="rounded=0;whiteSpace=wrap;html=1;strokeWidth=3;perimeterSpacing=0;glass=0;fontFamily=Roboto;fontSource=https%3A%2F%2Ffonts.googleapis.com%2Fcss%3Ffamily%3DRoboto;fontSize=11;fontStyle=1;spacing=2;strokeColor=#1E3F78;verticalAlign=top;" parent="-cuk2yoH8M7ZRQOfJtpF-1" vertex="1">
                    <mxGeometry x="173" y="240" width="156" height="50" as="geometry"/>
                </mxCell>
                <mxCell id="-cuk2yoH8M7ZRQOfJtpF-10" value="" style="edgeStyle=elbowEdgeStyle;elbow=horizontal;endArrow=block;html=1;fontFamily=Roboto;fontSource=https%3A%2F%2Ffonts.googleapis.com%2Fcss2%3Ffamily%3DRoboto%3Aital%2Cwght%401%2C300%26display%3Dswapp;fontSize=9;fontColor=#FFFFFF;strokeColor=#1E3F78;strokeWidth=3;endFill=1;exitX=1;exitY=0.5;exitDx=0;exitDy=0;" parent="-cuk2yoH8M7ZRQOfJtpF-1" source="-cuk2yoH8M7ZRQOfJtpF-11" target="-cuk2yoH8M7ZRQOfJtpF-9" edge="1">
                    <mxGeometry width="50" height="50" relative="1" as="geometry">
                        <mxPoint x="371" y="495.25" as="sourcePoint"/>
                        <mxPoint x="449.5" y="330.0000000000001" as="targetPoint"/>
                        <Array as="points">
                            <mxPoint x="256" y="220"/>
                        </Array>
                    </mxGeometry>
                </mxCell>
                <mxCell id="-cuk2yoH8M7ZRQOfJtpF-11" value="&lt;font color=&quot;#1e3f78&quot;&gt;Source&lt;br&gt;&lt;span style=&quot;font-weight: 400&quot;&gt;attributes/jobCode&lt;/span&gt;&lt;br&gt;&lt;/font&gt;" style="rounded=0;whiteSpace=wrap;html=1;strokeWidth=3;perimeterSpacing=0;glass=0;strokeColor=#1E3F78;fontFamily=Roboto;fontSource=https%3A%2F%2Ffonts.googleapis.com%2Fcss%3Ffamily%3DRoboto;fontColor=#FFFFFF;fontSize=11;fontStyle=1;spacing=0;verticalAlign=top;fillColor=#E6E6E6;" parent="-cuk2yoH8M7ZRQOfJtpF-1" vertex="1">
                    <mxGeometry x="97" y="170" width="120" height="37.5" as="geometry"/>
                </mxCell>
                <mxCell id="-cuk2yoH8M7ZRQOfJtpF-12" value="&lt;span style=&quot;color: rgb(30, 63, 120); font-weight: 400;&quot;&gt;default&amp;nbsp;&lt;/span&gt;&lt;font color=&quot;#1e3f78&quot;&gt;&lt;span style=&quot;font-weight: 400&quot;&gt;range&lt;/span&gt;&lt;/font&gt;" style="rounded=1;whiteSpace=wrap;html=1;strokeWidth=3;perimeterSpacing=0;glass=0;strokeColor=#1E3F78;fontFamily=Roboto;fontSource=https%3A%2F%2Ffonts.googleapis.com%2Fcss%3Ffamily%3DRoboto;fontColor=#FFFFFF;fontSize=11;fontStyle=1;spacing=2;verticalAlign=bottom;fillColor=#E6E6E6;dashed=1;dashPattern=1 1;arcSize=9;" parent="-cuk2yoH8M7ZRQOfJtpF-1" vertex="1">
                    <mxGeometry x="430" y="230" width="153" height="100" as="geometry"/>
                </mxCell>
                <mxCell id="-cuk2yoH8M7ZRQOfJtpF-13" value="&lt;font color=&quot;#1e3f78&quot;&gt;Target&lt;br&gt;&lt;span style=&quot;font-weight: 400&quot;&gt;assignment&lt;/span&gt;&lt;br&gt;&lt;/font&gt;" style="rounded=0;whiteSpace=wrap;html=1;strokeWidth=3;perimeterSpacing=0;glass=0;strokeColor=#1E3F78;fontFamily=Roboto;fontSource=https%3A%2F%2Ffonts.googleapis.com%2Fcss%3Ffamily%3DRoboto;fontColor=#FFFFFF;fontSize=11;fontStyle=1;spacing=0;verticalAlign=top;fillColor=#E6E6E6;" parent="-cuk2yoH8M7ZRQOfJtpF-1" vertex="1">
                    <mxGeometry x="410" y="246.25" width="193" height="37.5" as="geometry"/>
                </mxCell>
                <mxCell id="-cuk2yoH8M7ZRQOfJtpF-14" value="" style="endArrow=none;html=1;strokeWidth=3;strokeColor=#1E3F78;rounded=0;fontFamily=Courier New;fontSize=14;fontColor=#000000;exitX=0;exitY=0.5;exitDx=0;exitDy=0;entryX=1;entryY=0.5;entryDx=0;entryDy=0;edgeStyle=elbowEdgeStyle;elbow=vertical;endSize=6;jumpSize=6;" parent="-cuk2yoH8M7ZRQOfJtpF-1" source="-cuk2yoH8M7ZRQOfJtpF-13" target="-cuk2yoH8M7ZRQOfJtpF-9" edge="1">
                    <mxGeometry width="50" height="50" relative="1" as="geometry">
                        <mxPoint x="323" y="267.5" as="sourcePoint"/>
                        <mxPoint x="513.0000000000002" y="252.5000000000001" as="targetPoint"/>
                    </mxGeometry>
                </mxCell>
                <mxCell id="-cuk2yoH8M7ZRQOfJtpF-15" value="" style="endArrow=none;html=1;strokeWidth=3;strokeColor=#1E3F78;rounded=1;fontFamily=Roboto;fontSource=https%3A%2F%2Ffonts.googleapis.com%2Fcss%3Ffamily%3DRoboto;fontSize=11;fontColor=#000000;endSize=6;elbow=vertical;jumpSize=6;entryX=0;entryY=0.5;entryDx=0;entryDy=0;exitX=0.446;exitY=0.998;exitDx=0;exitDy=0;exitPerimeter=0;edgeStyle=orthogonalEdgeStyle;" parent="-cuk2yoH8M7ZRQOfJtpF-1" source="-cuk2yoH8M7ZRQOfJtpF-21" target="-cuk2yoH8M7ZRQOfJtpF-11" edge="1">
                    <mxGeometry width="50" height="50" relative="1" as="geometry">
                        <mxPoint x="63" y="189" as="sourcePoint"/>
                        <mxPoint x="513" y="360" as="targetPoint"/>
                    </mxGeometry>
                </mxCell>
                <mxCell id="-cuk2yoH8M7ZRQOfJtpF-16" value="assignment&lt;br&gt;&lt;span style=&quot;font-weight: normal&quot;&gt;(new values)&lt;/span&gt;" style="rounded=0;whiteSpace=wrap;html=1;strokeWidth=3;perimeterSpacing=0;glass=0;fontFamily=Roboto;fontSource=https%3A%2F%2Ffonts.googleapis.com%2Fcss%3Ffamily%3DRoboto;fontSize=11;fontStyle=1;spacing=2;strokeColor=#1E3F78;verticalAlign=top;fillColor=#EAEFF7;" parent="-cuk2yoH8M7ZRQOfJtpF-1" vertex="1">
                    <mxGeometry x="623" y="300" width="160" height="240" as="geometry"/>
                </mxCell>
                <mxCell id="-cuk2yoH8M7ZRQOfJtpF-17" value="&lt;i&gt;User's record in HR system&lt;/i&gt;" style="text;html=1;strokeColor=none;fillColor=none;align=center;verticalAlign=middle;whiteSpace=wrap;rounded=0;" parent="-cuk2yoH8M7ZRQOfJtpF-1" vertex="1">
                    <mxGeometry x="30.5" y="270" width="85" height="40" as="geometry"/>
                </mxCell>
                <mxCell id="-cuk2yoH8M7ZRQOfJtpF-18" value="&lt;div&gt;&lt;span style=&quot;font-weight: 400&quot;&gt;target = Sales Manager&lt;/span&gt;&lt;/div&gt;&lt;span style=&quot;font-weight: 400;&quot;&gt;provenance =&amp;nbsp;&lt;/span&gt;&lt;span style=&quot;font-weight: 400; background-color: initial;&quot;&gt;HR&lt;/span&gt;&lt;span style=&quot;font-weight: 400;&quot;&gt;&lt;br&gt;&lt;/span&gt;" style="rounded=0;whiteSpace=wrap;html=1;strokeWidth=3;perimeterSpacing=0;glass=0;fontFamily=Roboto;fontSource=https%3A%2F%2Ffonts.googleapis.com%2Fcss%3Ffamily%3DRoboto;fontSize=11;fontStyle=1;spacing=2;strokeColor=#1E3F78;verticalAlign=top;fillColor=#EAEFF7;align=left;spacingLeft=4;" parent="-cuk2yoH8M7ZRQOfJtpF-1" vertex="1">
                    <mxGeometry x="633" y="340" width="140" height="40" as="geometry"/>
                </mxCell>
                <mxCell id="-cuk2yoH8M7ZRQOfJtpF-19" value="&lt;div&gt;&lt;span style=&quot;font-weight: 400&quot;&gt;target = Business Analyst&lt;/span&gt;&lt;/div&gt;&lt;span style=&quot;font-weight: 400;&quot;&gt;provenance =&amp;nbsp;&lt;/span&gt;&lt;span style=&quot;font-weight: 400; background-color: initial;&quot;&gt;manual&lt;/span&gt;&lt;span style=&quot;font-weight: 400;&quot;&gt;&lt;br&gt;&lt;/span&gt;" style="rounded=0;whiteSpace=wrap;html=1;strokeWidth=3;perimeterSpacing=0;glass=0;fontFamily=Roboto;fontSource=https%3A%2F%2Ffonts.googleapis.com%2Fcss%3Ffamily%3DRoboto;fontSize=11;fontStyle=1;spacing=2;strokeColor=#1E3F78;verticalAlign=top;fillColor=#EAEFF7;align=left;spacingLeft=4;" parent="-cuk2yoH8M7ZRQOfJtpF-1" vertex="1">
                    <mxGeometry x="633" y="390" width="140" height="40" as="geometry"/>
                </mxCell>
                <mxCell id="-cuk2yoH8M7ZRQOfJtpF-21" value="jobCode&lt;br&gt;&lt;span style=&quot;font-weight: normal&quot;&gt;(new value)&lt;br&gt;&lt;br&gt;&lt;/span&gt;&lt;span style=&quot;font-weight: normal&quot;&gt;&lt;font face=&quot;Courier New&quot;&gt;30054&lt;/font&gt;&lt;br&gt;&lt;/span&gt;" style="rounded=0;whiteSpace=wrap;html=1;strokeWidth=3;perimeterSpacing=0;glass=0;fontFamily=Roboto;fontSource=https%3A%2F%2Ffonts.googleapis.com%2Fcss%3Ffamily%3DRoboto;fontSize=11;fontStyle=1;spacing=2;strokeColor=#1E3F78;verticalAlign=top;fillColor=#EAEFF7;" parent="-cuk2yoH8M7ZRQOfJtpF-1" vertex="1">
                    <mxGeometry x="33" y="82.5" width="80" height="67.5" as="geometry"/>
                </mxCell>
                <mxCell id="-cuk2yoH8M7ZRQOfJtpF-22" value="&lt;font color=&quot;#1e3f78&quot; style=&quot;font-size: 22px&quot;&gt;Mapping B&lt;/font&gt;" style="rounded=0;whiteSpace=wrap;html=1;strokeWidth=3;perimeterSpacing=0;glass=0;strokeColor=#1E3F78;fontFamily=Roboto;fontSource=https%3A%2F%2Ffonts.googleapis.com%2Fcss%3Ffamily%3DRoboto;fontColor=#FFFFFF;fontSize=11;fontStyle=1;spacing=2;verticalAlign=top;fillColor=#E6E6E6;" parent="-cuk2yoH8M7ZRQOfJtpF-1" vertex="1">
                    <mxGeometry x="143" y="440" width="390" height="220" as="geometry"/>
                </mxCell>
                <mxCell id="-cuk2yoH8M7ZRQOfJtpF-23" value="Expression&lt;br&gt;&lt;span style=&quot;font-weight: normal&quot;&gt;assignmentTargetSearch&lt;/span&gt;" style="rounded=0;whiteSpace=wrap;html=1;strokeWidth=3;perimeterSpacing=0;glass=0;fontFamily=Roboto;fontSource=https%3A%2F%2Ffonts.googleapis.com%2Fcss%3Ffamily%3DRoboto;fontSize=11;fontStyle=1;spacing=2;strokeColor=#1E3F78;verticalAlign=top;" parent="-cuk2yoH8M7ZRQOfJtpF-1" vertex="1">
                    <mxGeometry x="173" y="550" width="156" height="50" as="geometry"/>
                </mxCell>
                <mxCell id="-cuk2yoH8M7ZRQOfJtpF-24" value="" style="edgeStyle=elbowEdgeStyle;elbow=horizontal;endArrow=block;html=1;fontFamily=Roboto;fontSource=https%3A%2F%2Ffonts.googleapis.com%2Fcss2%3Ffamily%3DRoboto%3Aital%2Cwght%401%2C300%26display%3Dswapp;fontSize=9;fontColor=#FFFFFF;strokeColor=#1E3F78;strokeWidth=3;endFill=1;exitX=1;exitY=0.5;exitDx=0;exitDy=0;" parent="-cuk2yoH8M7ZRQOfJtpF-1" source="-cuk2yoH8M7ZRQOfJtpF-25" target="-cuk2yoH8M7ZRQOfJtpF-23" edge="1">
                    <mxGeometry width="50" height="50" relative="1" as="geometry">
                        <mxPoint x="371" y="805.25" as="sourcePoint"/>
                        <mxPoint x="449.5" y="640.0000000000001" as="targetPoint"/>
                        <Array as="points">
                            <mxPoint x="256" y="530"/>
                        </Array>
                    </mxGeometry>
                </mxCell>
                <mxCell id="-cuk2yoH8M7ZRQOfJtpF-25" value="&lt;font color=&quot;#1e3f78&quot;&gt;Source&lt;br&gt;&lt;span style=&quot;font-weight: 400&quot;&gt;attributes/project&lt;/span&gt;&lt;br&gt;&lt;/font&gt;" style="rounded=0;whiteSpace=wrap;html=1;strokeWidth=3;perimeterSpacing=0;glass=0;strokeColor=#1E3F78;fontFamily=Roboto;fontSource=https%3A%2F%2Ffonts.googleapis.com%2Fcss%3Ffamily%3DRoboto;fontColor=#FFFFFF;fontSize=11;fontStyle=1;spacing=0;verticalAlign=top;fillColor=#E6E6E6;" parent="-cuk2yoH8M7ZRQOfJtpF-1" vertex="1">
                    <mxGeometry x="97" y="480" width="120" height="37.5" as="geometry"/>
                </mxCell>
                <mxCell id="-cuk2yoH8M7ZRQOfJtpF-26" value="&lt;span style=&quot;color: rgb(30, 63, 120); font-weight: 400;&quot;&gt;default&amp;nbsp;&lt;/span&gt;&lt;font color=&quot;#1e3f78&quot;&gt;&lt;span style=&quot;font-weight: 400&quot;&gt;range&lt;/span&gt;&lt;/font&gt;" style="rounded=1;whiteSpace=wrap;html=1;strokeWidth=3;perimeterSpacing=0;glass=0;strokeColor=#1E3F78;fontFamily=Roboto;fontSource=https%3A%2F%2Ffonts.googleapis.com%2Fcss%3Ffamily%3DRoboto;fontColor=#FFFFFF;fontSize=11;fontStyle=1;spacing=2;verticalAlign=bottom;fillColor=#E6E6E6;dashed=1;dashPattern=1 1;arcSize=9;" parent="-cuk2yoH8M7ZRQOfJtpF-1" vertex="1">
                    <mxGeometry x="430" y="540" width="153" height="100" as="geometry"/>
                </mxCell>
                <mxCell id="-cuk2yoH8M7ZRQOfJtpF-27" value="&lt;font color=&quot;#1e3f78&quot;&gt;Target&lt;br&gt;&lt;span style=&quot;font-weight: 400&quot;&gt;assignment&lt;/span&gt;&lt;br&gt;&lt;/font&gt;" style="rounded=0;whiteSpace=wrap;html=1;strokeWidth=3;perimeterSpacing=0;glass=0;strokeColor=#1E3F78;fontFamily=Roboto;fontSource=https%3A%2F%2Ffonts.googleapis.com%2Fcss%3Ffamily%3DRoboto;fontColor=#FFFFFF;fontSize=11;fontStyle=1;spacing=0;verticalAlign=top;fillColor=#E6E6E6;" parent="-cuk2yoH8M7ZRQOfJtpF-1" vertex="1">
                    <mxGeometry x="410" y="556.25" width="193" height="37.5" as="geometry"/>
                </mxCell>
                <mxCell id="-cuk2yoH8M7ZRQOfJtpF-28" value="" style="endArrow=none;html=1;strokeWidth=3;strokeColor=#1E3F78;rounded=0;fontFamily=Courier New;fontSize=14;fontColor=#000000;exitX=0;exitY=0.5;exitDx=0;exitDy=0;entryX=1;entryY=0.5;entryDx=0;entryDy=0;edgeStyle=elbowEdgeStyle;elbow=vertical;endSize=6;jumpSize=6;" parent="-cuk2yoH8M7ZRQOfJtpF-1" source="-cuk2yoH8M7ZRQOfJtpF-27" target="-cuk2yoH8M7ZRQOfJtpF-23" edge="1">
                    <mxGeometry width="50" height="50" relative="1" as="geometry">
                        <mxPoint x="323" y="577.5" as="sourcePoint"/>
                        <mxPoint x="513.0000000000002" y="562.5000000000001" as="targetPoint"/>
                    </mxGeometry>
                </mxCell>
                <mxCell id="-cuk2yoH8M7ZRQOfJtpF-30" value="" style="edgeStyle=elbowEdgeStyle;elbow=vertical;endArrow=block;html=1;fontFamily=Roboto;fontSource=https%3A%2F%2Ffonts.googleapis.com%2Fcss2%3Ffamily%3DRoboto%3Aital%2Cwght%401%2C300%26display%3Dswapp;fontSize=9;fontColor=#FFFFFF;strokeColor=#1E3F78;strokeWidth=3;endFill=1;rounded=1;endSize=6;jumpSize=6;exitX=1;exitY=0.5;exitDx=0;exitDy=0;entryX=0.25;entryY=1;entryDx=0;entryDy=0;" parent="-cuk2yoH8M7ZRQOfJtpF-1" source="-cuk2yoH8M7ZRQOfJtpF-27" target="-cuk2yoH8M7ZRQOfJtpF-16" edge="1">
                    <mxGeometry width="50" height="50" relative="1" as="geometry">
                        <mxPoint x="613" y="215" as="sourcePoint"/>
                        <mxPoint x="663" y="510" as="targetPoint"/>
                        <Array as="points">
                            <mxPoint x="660" y="575"/>
                        </Array>
                    </mxGeometry>
                </mxCell>
                <mxCell id="-cuk2yoH8M7ZRQOfJtpF-31" value="&lt;div&gt;&lt;span style=&quot;font-weight: 400&quot;&gt;target = Project Underdog&lt;/span&gt;&lt;/div&gt;&lt;span style=&quot;font-weight: 400;&quot;&gt;provenance =&amp;nbsp;&lt;/span&gt;&lt;span style=&quot;font-weight: 400; background-color: initial;&quot;&gt;project&lt;/span&gt;&lt;span style=&quot;font-weight: 400;&quot;&gt;&lt;br&gt;&lt;/span&gt;" style="rounded=0;whiteSpace=wrap;html=1;strokeWidth=3;perimeterSpacing=0;glass=0;fontFamily=Roboto;fontSource=https%3A%2F%2Ffonts.googleapis.com%2Fcss%3Ffamily%3DRoboto;fontSize=11;fontStyle=1;spacing=2;strokeColor=#1E3F78;verticalAlign=top;fillColor=#EAEFF7;align=left;spacingLeft=4;" parent="-cuk2yoH8M7ZRQOfJtpF-1" vertex="1">
                    <mxGeometry x="633" y="440" width="140" height="40" as="geometry"/>
                </mxCell>
                <mxCell id="-cuk2yoH8M7ZRQOfJtpF-32" value="&lt;div&gt;&lt;span style=&quot;font-weight: 400&quot;&gt;target = Project Overlord&lt;/span&gt;&lt;/div&gt;&lt;span style=&quot;font-weight: 400;&quot;&gt;provenance =&amp;nbsp;&lt;/span&gt;&lt;span style=&quot;font-weight: 400; background-color: initial;&quot;&gt;project&lt;/span&gt;&lt;span style=&quot;font-weight: 400;&quot;&gt;&lt;br&gt;&lt;/span&gt;" style="rounded=0;whiteSpace=wrap;html=1;strokeWidth=3;perimeterSpacing=0;glass=0;fontFamily=Roboto;fontSource=https%3A%2F%2Ffonts.googleapis.com%2Fcss%3Ffamily%3DRoboto;fontSize=11;fontStyle=1;spacing=2;strokeColor=#1E3F78;verticalAlign=top;fillColor=#EAEFF7;align=left;spacingLeft=4;" parent="-cuk2yoH8M7ZRQOfJtpF-1" vertex="1">
                    <mxGeometry x="633" y="490" width="140" height="40" as="geometry"/>
                </mxCell>
                <mxCell id="-cuk2yoH8M7ZRQOfJtpF-33" value="" style="edgeStyle=elbowEdgeStyle;elbow=vertical;endArrow=block;html=1;fontFamily=Roboto;fontSource=https%3A%2F%2Ffonts.googleapis.com%2Fcss2%3Ffamily%3DRoboto%3Aital%2Cwght%401%2C300%26display%3Dswapp;fontSize=9;fontColor=#FFFFFF;strokeColor=#1E3F78;strokeWidth=3;endFill=1;rounded=1;endSize=6;jumpSize=6;exitX=1;exitY=0.5;exitDx=0;exitDy=0;entryX=0.25;entryY=0;entryDx=0;entryDy=0;" parent="-cuk2yoH8M7ZRQOfJtpF-1" source="-cuk2yoH8M7ZRQOfJtpF-13" edge="1">
                    <mxGeometry width="50" height="50" relative="1" as="geometry">
                        <mxPoint x="609.5" y="265" as="sourcePoint"/>
                        <mxPoint x="669.5" y="300" as="targetPoint"/>
                        <Array as="points">
                            <mxPoint x="679.5" y="265"/>
                        </Array>
                    </mxGeometry>
                </mxCell>
                <mxCell id="-cuk2yoH8M7ZRQOfJtpF-34" value="&lt;div style=&quot;text-align: left&quot;&gt;Delta&lt;/div&gt;" style="shape=callout;whiteSpace=wrap;html=1;perimeter=calloutPerimeter;dashed=1;dashPattern=1 1;fillColor=#EAEFF7;position2=0.24;size=30;position=0.24;verticalAlign=top;" parent="-cuk2yoH8M7ZRQOfJtpF-1" vertex="1">
                    <mxGeometry x="596.5" y="90" width="200" height="170" as="geometry"/>
                </mxCell>
                <mxCell id="-cuk2yoH8M7ZRQOfJtpF-35" value="&lt;div&gt;&lt;span style=&quot;font-weight: 400&quot;&gt;target = Sales Assistant&lt;/span&gt;&lt;/div&gt;&lt;span style=&quot;font-weight: 400;&quot;&gt;provenance =&amp;nbsp;&lt;/span&gt;&lt;span style=&quot;font-weight: 400; background-color: initial;&quot;&gt;HR&lt;/span&gt;&lt;span style=&quot;font-weight: 400;&quot;&gt;&lt;br&gt;&lt;/span&gt;" style="rounded=0;whiteSpace=wrap;html=1;strokeWidth=1;perimeterSpacing=0;glass=0;fontFamily=Roboto;fontSource=https%3A%2F%2Ffonts.googleapis.com%2Fcss%3Ffamily%3DRoboto;fontSize=11;fontStyle=1;spacing=2;strokeColor=#1E3F78;verticalAlign=top;fillColor=#EAEFF7;align=left;spacingLeft=4;" parent="-cuk2yoH8M7ZRQOfJtpF-1" vertex="1">
                    <mxGeometry x="649.5" y="170" width="140" height="40" as="geometry"/>
                </mxCell>
                <mxCell id="-cuk2yoH8M7ZRQOfJtpF-36" value="&lt;div&gt;&lt;span style=&quot;font-weight: 400&quot;&gt;target = Sales Manager&lt;/span&gt;&lt;/div&gt;&lt;span style=&quot;font-weight: 400;&quot;&gt;provenance = HR&lt;/span&gt;&lt;span style=&quot;font-weight: 400&quot;&gt;&lt;br&gt;&lt;/span&gt;" style="rounded=0;whiteSpace=wrap;html=1;strokeWidth=1;perimeterSpacing=0;glass=0;fontFamily=Roboto;fontSource=https%3A%2F%2Ffonts.googleapis.com%2Fcss%3Ffamily%3DRoboto;fontSize=11;fontStyle=1;spacing=2;strokeColor=#1E3F78;verticalAlign=top;fillColor=#EAEFF7;align=left;spacingLeft=4;" parent="-cuk2yoH8M7ZRQOfJtpF-1" vertex="1">
                    <mxGeometry x="649.5" y="120" width="140" height="40" as="geometry"/>
                </mxCell>
                <mxCell id="-cuk2yoH8M7ZRQOfJtpF-37" value="" style="shape=cross;whiteSpace=wrap;html=1;fillColor=#37B34A;" parent="-cuk2yoH8M7ZRQOfJtpF-1" vertex="1">
                    <mxGeometry x="603" y="122.5" width="40" height="35" as="geometry"/>
                </mxCell>
                <mxCell id="-cuk2yoH8M7ZRQOfJtpF-38" value="" style="rounded=0;whiteSpace=wrap;html=1;fillColor=#F05A28;" parent="-cuk2yoH8M7ZRQOfJtpF-1" vertex="1">
                    <mxGeometry x="608" y="185" width="30" height="10" as="geometry"/>
                </mxCell>
                <mxCell id="-cuk2yoH8M7ZRQOfJtpF-39" value="&lt;div style=&quot;text-align: left&quot;&gt;&lt;br&gt;&lt;/div&gt;" style="shape=callout;whiteSpace=wrap;html=1;perimeter=calloutPerimeter;dashed=1;dashPattern=1 1;fillColor=#EAEFF7;position2=0.84;size=30;position=0.74;verticalAlign=top;rotation=-180;base=21;" parent="-cuk2yoH8M7ZRQOfJtpF-1" vertex="1">
                    <mxGeometry x="596.5" y="580" width="200" height="170" as="geometry"/>
                </mxCell>
                <mxCell id="-cuk2yoH8M7ZRQOfJtpF-40" value="&lt;meta charset=&quot;utf-8&quot;&gt;&lt;span style=&quot;color: rgb(0, 0, 0); font-family: helvetica; font-size: 12px; font-style: normal; font-weight: 400; letter-spacing: normal; text-align: left; text-indent: 0px; text-transform: none; word-spacing: 0px; background-color: rgb(234, 239, 247); display: inline; float: none;&quot;&gt;Delta&lt;/span&gt;" style="text;whiteSpace=wrap;html=1;" parent="-cuk2yoH8M7ZRQOfJtpF-1" vertex="1">
                    <mxGeometry x="671.5" y="610" width="50" height="30" as="geometry"/>
                </mxCell>
                <mxCell id="-cuk2yoH8M7ZRQOfJtpF-41" value="&lt;div&gt;&lt;span style=&quot;font-weight: 400&quot;&gt;target = Project Dinosaur&lt;/span&gt;&lt;/div&gt;&lt;span style=&quot;font-weight: 400;&quot;&gt;provenance =&amp;nbsp;&lt;/span&gt;&lt;span style=&quot;font-weight: 400; background-color: initial;&quot;&gt;project&lt;/span&gt;&lt;span style=&quot;font-weight: 400;&quot;&gt;&lt;br&gt;&lt;/span&gt;" style="rounded=0;whiteSpace=wrap;html=1;strokeWidth=1;perimeterSpacing=0;glass=0;fontFamily=Roboto;fontSource=https%3A%2F%2Ffonts.googleapis.com%2Fcss%3Ffamily%3DRoboto;fontSize=11;fontStyle=1;spacing=2;strokeColor=#1E3F78;verticalAlign=top;fillColor=#EAEFF7;align=left;spacingLeft=4;" parent="-cuk2yoH8M7ZRQOfJtpF-1" vertex="1">
                    <mxGeometry x="649.5" y="690" width="140" height="40" as="geometry"/>
                </mxCell>
                <mxCell id="-cuk2yoH8M7ZRQOfJtpF-42" value="&lt;div&gt;&lt;span style=&quot;font-weight: 400&quot;&gt;target = Project Overlord&lt;/span&gt;&lt;/div&gt;&lt;span style=&quot;font-weight: 400;&quot;&gt;provenance =&amp;nbsp;&lt;/span&gt;&lt;span style=&quot;font-weight: 400; background-color: initial;&quot;&gt;project&lt;/span&gt;&lt;span style=&quot;font-weight: 400;&quot;&gt;&lt;br&gt;&lt;/span&gt;" style="rounded=0;whiteSpace=wrap;html=1;strokeWidth=1;perimeterSpacing=0;glass=0;fontFamily=Roboto;fontSource=https%3A%2F%2Ffonts.googleapis.com%2Fcss%3Ffamily%3DRoboto;fontSize=11;fontStyle=1;spacing=2;strokeColor=#1E3F78;verticalAlign=top;fillColor=#EAEFF7;align=left;spacingLeft=4;" parent="-cuk2yoH8M7ZRQOfJtpF-1" vertex="1">
                    <mxGeometry x="649.5" y="640" width="140" height="40" as="geometry"/>
                </mxCell>
                <mxCell id="-cuk2yoH8M7ZRQOfJtpF-43" value="" style="shape=cross;whiteSpace=wrap;html=1;fillColor=#37B34A;" parent="-cuk2yoH8M7ZRQOfJtpF-1" vertex="1">
                    <mxGeometry x="603" y="642.5" width="40" height="35" as="geometry"/>
                </mxCell>
                <mxCell id="-cuk2yoH8M7ZRQOfJtpF-44" value="" style="rounded=0;whiteSpace=wrap;html=1;fillColor=#F05A28;" parent="-cuk2yoH8M7ZRQOfJtpF-1" vertex="1">
                    <mxGeometry x="608" y="705" width="30" height="10" as="geometry"/>
                </mxCell>
                <mxCell id="FH_4DSogvXfreXrcYfQl-0" value="&lt;span style=&quot;font-size: 11px&quot;&gt;name == &quot;HR&quot;&lt;/span&gt;" style="rounded=0;whiteSpace=wrap;html=1;dashed=1;dashPattern=1 1;fontFamily=Courier New;fontSize=14;fillColor=none;strokeColor=none;" vertex="1" parent="-cuk2yoH8M7ZRQOfJtpF-1">
                    <mxGeometry x="286" y="160" width="104" height="20" as="geometry"/>
                </mxCell>
                <mxCell id="FH_4DSogvXfreXrcYfQl-1" value="&lt;span style=&quot;font-size: 11px&quot;&gt;name == &quot;project&quot;&lt;/span&gt;" style="rounded=0;whiteSpace=wrap;html=1;dashed=1;dashPattern=1 1;fontFamily=Courier New;fontSize=14;fillColor=none;strokeColor=none;" vertex="1" parent="-cuk2yoH8M7ZRQOfJtpF-1">
                    <mxGeometry x="274" y="470" width="140" height="20" as="geometry"/>
                </mxCell>
            </root>
        </mxGraphModel>
    </diagram>
</mxfile>